<?xml version="1.0" encoding="utf-8"?>
<!-- Generator: Adobe Illustrator 17.0.0, SVG Export Plug-In . SVG Version: 6.00 Build 0)  -->
<!DOCTYPE svg PUBLIC "-//W3C//DTD SVG 1.1//EN" "http://www.w3.org/Graphics/SVG/1.1/DTD/svg11.dtd">
<svg version="1.1" id="svg2116" xmlns:svg="http://www.w3.org/2000/svg"
	 xmlns="http://www.w3.org/2000/svg" xmlns:xlink="http://www.w3.org/1999/xlink" x="0px" y="0px" width="1000px" height="1000px"
	 viewBox="-162.5 37.618 1000 1000" enable-background="new -162.5 37.618 1000 1000" xml:space="preserve">
<path id="path4650" fill="#B0B0B0" stroke="#727271" stroke-width="2" d="M251.628,586.791c-0.641,5.158-2.15-1.601-5.176-0.866
	C247.395,584.785,251.761,585.411,251.628,586.791z"/>
<path id="path4652" fill="#B0B0B0" stroke="#727271" stroke-width="2" d="M187.002,606.254
	C185.376,610.785,181.874,600.896,187.002,606.254z"/>
<path id="path4654" fill="#B0B0B0" stroke="#727271" stroke-width="2" d="M152.963,596.812
	C151.91,598.648,150.906,593.808,152.963,596.812z"/>
<path id="path4656" fill="#B0B0B0" stroke="#727271" stroke-width="2" d="M151.321,590.014
	C145.795,589.524,149.613,586.665,151.321,590.014z"/>
<path id="path4658" fill="#B0B0B0" stroke="#727271" stroke-width="2" d="M143.494,604.507
	C141.982,606.235,142.399,602.003,143.494,604.507z"/>
<path id="path4660" fill="#B0B0B0" stroke="#727271" stroke-width="2" d="M136.758,612.136c0.069,6.607-6.174-2.24-1.657-1.793
	C135.302,611.249,137.355,611.097,136.758,612.136z"/>
<path id="path4662" fill="#B0B0B0" stroke="#727271" stroke-width="2" d="M140.07,607.881
	C141.664,613.383,138.29,607.623,140.07,607.881z"/>
<path id="path4664" fill="#B0B0B0" stroke="#727271" stroke-width="2" d="M139.256,615.217
	C140.037,618.067,136.968,614.33,139.256,615.217z"/>
<path id="path4666" fill="#B0B0B0" stroke="#727271" stroke-width="2" d="M132.88,671.494
	C132.147,673.708,131.8,669.754,132.88,671.494z"/>
<path id="path4668" fill="#B0B0B0" stroke="#727271" stroke-width="2" d="M104.416,678.625
	C105.347,681.616,99.297,675.843,104.416,678.625z"/>
<path id="path4670" fill="#B0B0B0" stroke="#727271" stroke-width="2" d="M55.801,678.766
	C56.227,680.561,53.991,678.265,55.801,678.766z"/>
<path id="path4672" fill="#B0B0B0" stroke="#727271" stroke-width="2" d="M52.103,684.714
	C53.465,687.362,49.813,685.293,52.103,684.714z"/>
<path id="path4674" fill="#B0B0B0" stroke="#727271" stroke-width="2" d="M51.495,686.702
	C49.27,688.91,49.841,685.834,51.495,686.702z"/>
<path id="path4676" fill="#B0B0B0" stroke="#727271" stroke-width="2" d="M53.29,690.23C52.246,692.892,51.794,689.004,53.29,690.23
	z"/>
<path id="path4678" fill="#B0B0B0" stroke="#727271" stroke-width="2" d="M63.669,695.529c1.944,2.465-1.583,5.097,1.657,5.617
	c0.02,4.701-2.057,6.582-5.798,2.863c-0.961-2.665-0.4-6.061-5.12-4.354c-3.464,0.576-8.512-1.329-2.678-2.563
	c0.829-3.173,5.47,1.015,7.122-2.565C59.696,696.735,63.178,693.61,63.669,695.529z"/>
<path id="path4680" fill="#B0B0B0" stroke="#727271" stroke-width="2" d="M66.748,696.718
	C66.717,698.419,64.763,695.82,66.748,696.718z"/>
<path id="path4682" fill="#B0B0B0" stroke="#727271" stroke-width="2" d="M68.514,697.697
	C68.995,700.615,66.8,696.89,68.514,697.697z"/>
<path id="path4684" fill="#B0B0B0" stroke="#727271" stroke-width="2" d="M78.853,709.588
	C78.09,711.644,77.701,708.549,78.853,709.588z"/>
<path id="path4686" fill="#B0B0B0" stroke="#727271" stroke-width="2" d="M79.985,710.169
	C80.57,711.786,78.489,709.684,79.985,710.169z"/>
<path id="path4688" fill="#B0B0B0" stroke="#727271" stroke-width="2" d="M63.945,713.047c-5.007,4.29-5.541-2.78-0.717-1.044
	C63.482,712.716,65.08,712.134,63.945,713.047z"/>
<path id="path4690" fill="#B0B0B0" stroke="#727271" stroke-width="2" d="M60.04,720.211
	C61.351,722.954,57.697,719.196,60.04,720.211z"/>
<path id="path4692" fill="#B0B0B0" stroke="#727271" stroke-width="2" d="M57.113,721.091
	C54.361,725.095,54.606,719.229,57.113,721.091z"/>
<path id="path4694" fill="#B0B0B0" stroke="#727271" stroke-width="2" d="M55.485,728.007
	C54.459,729.104,54.706,726.925,55.485,728.007z"/>
<path id="path4696" fill="#B0B0B0" stroke="#727271" stroke-width="2" d="M47.795,729.278
	C48.363,731.498,45.263,728.657,47.795,729.278z"/>
<path id="path4698" fill="#B0B0B0" stroke="#727271" stroke-width="2" d="M52.586,727.083c0.515,4.561-7.573-0.299-1.422,0.416
	C51.39,726.923,52.083,726.535,52.586,727.083z"/>
<path id="path4700" fill="#B0B0B0" stroke="#727271" stroke-width="2" d="M53.897,736.501
	C51.646,736.255,54.142,734.923,53.897,736.501z"/>
<path id="path4702" fill="#B0B0B0" stroke="#727271" stroke-width="2" d="M66.554,745.963
	C67.627,750.929,64.547,746.663,66.554,745.963z"/>
<path id="path4704" fill="#B0B0B0" stroke="#727271" stroke-width="2" d="M69.315,754.528
	C70.533,758.767,67.156,752.209,69.315,754.528z"/>
<path id="path4706" fill="#B0B0B0" stroke="#727271" stroke-width="2" d="M79.225,755.422
	C72.855,757.466,78.952,752.721,79.225,755.422z"/>
<path id="path4708" fill="#B0B0B0" stroke="#727271" stroke-width="2" d="M75.568,759.318
	C75.697,762.679,72.795,759.312,75.568,759.318z"/>
<path id="path4710" fill="#B0B0B0" stroke="#727271" stroke-width="2" d="M78.923,757.485c2.297,6.369-7.084,1.447-0.636-0.962
	C79.036,756.183,79.182,756.978,78.923,757.485z"/>
<path id="path4712" fill="#B0B0B0" stroke="#727271" stroke-width="2" d="M80.635,770.774c-2.102,3.228-8.974-3.548-10.174-3.518
	c3.821,0.083,7.139,1.81,9.305,3.061C80.101,769.728,80.895,770.167,80.635,770.774z"/>
<path id="path4714" fill="#B0B0B0" stroke="#727271" stroke-width="2" d="M86.155,774.949
	C83.667,779.288,83.136,771.631,86.155,774.949z"/>
<path id="path4716" fill="#B0B0B0" stroke="#727271" stroke-width="2" d="M85.685,794.913
	C83.727,796.67,84.753,793.291,85.685,794.913z"/>
<path id="path4718" fill="#B0B0B0" stroke="#727271" stroke-width="2" d="M36.533,852.67c-2.947,3.062-4.985,1.851-0.884-0.625
	C36.053,851.492,37.041,851.947,36.533,852.67z"/>
<path id="path4720" fill="#B0B0B0" stroke="#727271" stroke-width="2" d="M31.509,856.817
	C32.913,859.005,28.986,856.065,31.509,856.817z"/>
<path id="path4722" fill="#B0B0B0" stroke="#727271" stroke-width="2" d="M47.038,867.053c-3.389,3.566-9.179,2.787-2.845-0.644
	C45.262,866.557,46.986,866.456,47.038,867.053z"/>
<path id="path4724" fill="#B0B0B0" stroke="#727271" stroke-width="2" d="M49.563,882.22
	C48.761,884.432,47.939,881.252,49.563,882.22z"/>
<path id="path4726" fill="#B0B0B0" stroke="#727271" stroke-width="2" d="M53.497,892.318
	C46.262,897.484,52.003,889.656,53.497,892.318z"/>
<path id="path4728" fill="#B0B0B0" stroke="#727271" stroke-width="2" d="M72.241,889.382c-2.05,3.75-10.49,0.827-3.215,0.022
	C70.013,890.406,72.517,888.314,72.241,889.382z"/>
<path id="path4730" fill="#B0B0B0" stroke="#727271" stroke-width="2" d="M87.549,884.543
	C83.982,888.502,85.122,883.683,87.549,884.543z"/>
<path id="path4732" fill="#B0B0B0" stroke="#727271" stroke-width="2" d="M83.905,900.803
	C77.232,906.714,85.131,897.947,83.905,900.803z"/>
<path id="path4734" fill="#B0B0B0" stroke="#727271" stroke-width="2" d="M86.998,899.46
	C87.195,901.167,84.625,899.43,86.998,899.46z"/>
<path id="path4736" fill="#B0B0B0" stroke="#727271" stroke-width="2" d="M88.764,899.218
	C86.758,900.437,88.583,897.711,88.764,899.218z"/>
<path id="path4738" fill="#B0B0B0" stroke="#727271" stroke-width="2" d="M90.033,900.913
	C87.761,902.628,89.339,899.118,90.033,900.913z"/>
<path id="path4740" fill="#B0B0B0" stroke="#727271" stroke-width="2" d="M91.676,901.992
	C89.041,906.437,89.529,900.398,91.676,901.992z"/>
<path id="path4742" fill="#B0B0B0" stroke="#727271" stroke-width="2" d="M88.488,904.852
	C82.907,909.446,86.51,902.249,88.488,904.852z"/>
<path id="path4744" fill="#B0B0B0" stroke="#727271" stroke-width="2" d="M85.879,902.52
	C85.154,904.785,84.976,901.28,85.879,902.52z"/>
<path id="path4746" fill="#B0B0B0" stroke="#727271" stroke-width="2" d="M83.408,772.075
	C81.506,777.659,79.056,770.763,83.408,772.075z"/>
<path id="path4748" fill="#B0B0B0" stroke="#727271" stroke-width="2" d="M150.064,872.227
	C144.716,876.714,146.736,868.279,150.064,872.227z"/>
<path id="path4750" fill="#B0B0B0" stroke="#727271" stroke-width="2" d="M191.281,579.188c-2.418,0.192,1.988,2.25,2.781,2.75
	c-2.745,0.425,1.497,3.861,3.719,5.625c-3.611,1.188-3.56-0.86-5-2.469c-2.717,3.434-7.523,0.757-7.969,3.813
	c-4.27,4.868,3.483,8.34,1.938,13.813c3.115,6.176-4.787,6.505-7.5,11.469c-3.949-0.019,8.478-8.026,0.375-6.031
	c0.589-2.595,8.831-6.329,2.563-11.031c-4.415-0.974,0.326-11.103-4.594-8.563c-1.507,1.715-9.184,3.897-4.344,6.5
	c1.778,0.879,2.106,2.244,1.75-2.344c1.764,1.779,3.257,6.012,1.375,10.5c1.343-4.284-3.991-6.789-6.5-8.656
	c2.34-5.022,0.723-3.87-2.594-1.656c1.603,2.102,3.456,7.838-1.406,7.406c3.802-3.716-0.664-0.55,0.156-3.5
	c-2.788-0.161-1.694-4.115-5.031-4.063c-0.608,4.578-4.639,5.465-7.563,8.25c0.647-2.388,1.107-3.786-2.438-1.594
	c-5.444-3.463-5.302,4.423-5.969,5.406c2.427,3.281-4.519,2.019-3.875,6.188c-4.771,0,0.723,4.734,0.844,5.594
	c-6.581-0.409-1.044,7.132,1.594,3.906c4.702,1.929-1.125,0.904-1.625,3.5c6.417,2.277-1.543,1.205-4.375,1.031
	c-6.292,0.974-1.698,2.938,1.656,5.656c5.56,3.687-9.233-2.672-2.875,0.5c6.1,4.318-6.857-2.636-9.25,1.313
	c-2.08,2.951-6.817,4.305-5.188,7c1.842,4.242,9.55,6.93,14.938,4.094c-1.436,4.111,7.977-2.499,3.719,2.594
	c-5.365,4.683,1.411,1.065,3.344-1.781c4.558-5.701,0.921,4.416,5.625-0.031c3.522-4.008,8.517,0.331,4.344,0.813
	c-1.296,0.816-5.651,7.111-6.719,11.063c-3.686,2.055-9.758,0.281-9.656,2.938c-1.693,4.186-5.455,4.793-9.188,6.563
	c-2.46,6.189,4.542,0.506,7.875,3.781c-1.071,1.196-5.845-0.785-1.063,1.969c7.626,3.364-9.016,0.563-3.125,3.906
	c5.179,3.678,1.433,5.292-2,1.719c-2.24-6.151-8.508-1.174-12.906-2.938c-3.997-4.287-10.248-2.137-10.594,3.625
	c-1.002,3.968-1.916,4.753-5.063,1.438c-1.605-1.337,0.922-5.662-1.438-5.813c-0.887-0.082-4.719-6.579-7.25-2.125
	c-6.396-2.333-13.858,0.048-21.156-3.469c-5.53,1.172-2.027,4.751,0.063,4.625c2.935,4.076-0.257,0.27-3.094,1.313
	c-0.548,3.233-2.648,7.286-5.688,3.719c1.249,0.478,6.587-2.561,0.969-3.219c-2.14-4.637-3.191-2.193-6.25,0.344
	c-0.326,0.839,0.022,2.373-1.375,2.094c3.913,1.495-0.245,5.495-0.938,9.844c1.085,4.881,3.677,0.745,2.594-0.469
	c0.105-2.314,0.198-4.956,3.125-4.969c-2.74-5.608,5.28-0.758,2.813,0.813c0.327,0.457-0.184,2.619,1.5,3.938
	c0.763,0.923-5.753,3.153-0.813,5.375c2.282-0.846,5.218-6.565,4.344-3.344c0.269,2.765-4.619,5.314-0.875,8.25
	c2.239,2.386,1.485,4.152,3.781,4.281c0.896,5.505-0.189,1.397-2.969,0c-3.603-1.967-6.251,9.902-0.844,7.344
	c4.53-2.466,11.72-3.651,15.031-1.75c0.596,2.474-1.611,3.392-2.094,5.219c4.449,1.793,1.748,4.967-3.688,3.719
	c-5.61,0.131-13.677,0.786-11.25,8.469c3.431,5.723-0.682,7.265-6.438,6.156c1.499,2.833,1.664,3.886-2.906,2.938
	c1.296,1.581-8.754,1.642-2.594,2.219c0.513,2.915,4.901,5.519,4.188,7.938c-2.642-1.557-8.026,3.209-3.219,2.906
	c3.18-1.935,4.797,2.045,8.125,3.188c2.171-0.788,5.917-7.58,4.688-2c3.353-2.183,2.727-1.472,4.125-0.188
	c0.119,2.693-6.461,2.099-5.5,5.969c1.708,0.386,4.936,2.281,7.656,1.906c1.008-2.397,7.469-9.982,5.125-3.094
	c-0.716,3.718,4.202-4.855,3.438,1.219c-2.136,0.279-2.969,6.989-1.031,7.438c2.046-2.321,2.052-5.074,2.375-0.094
	c8.635,1.475,18.921-0.42,27.406-2.563c7.816-0.592-3.449,3.688,1.813,4.969c5.862-1.904-0.507,1.556,1.656,5.094
	c-0.483,1.034-3.637-3.992-7.094-1.25c6.403,1.053,2.048,1.494-1.875,0.594c1.857,1.611-3.142,3.758-6.594,0.375
	c-3.002,0.998-4.285,6.361-6.563,9.25c0.073,2.916-7.438,9.004-2.813,8.438c8.143-1.186-0.844,4.214-0.656,7.25
	c-2.11,2.679-1.636,10.239-6.875,8.188c-4.54,5.313-9.986,11.834-17.469,14.969c3.246,0.691,11.029-0.11,11.938-3.531
	c4.303-0.246,6.646-2.243,6.875-5c1.29,5.653,9.48,5.112,14.063,2.594c-2.944,1.754-2.995,5.834,0.75,2.188
	c5.481-0.294,10.122-5.579,11.094-10.531c2.789-5.799,6.637,1.531,3.844,4.469c2.944-1.956,14.576,0.515,7.75,2.156
	c-4.71-3.826-9.214,3.766-12.438,2.875c-4.399,0.032-12.137,5.865-17.156,3.531c-3.818,2.29-9.58-1.198-13.125,1.688
	c-3.899,2.877,4.096,7.801-0.969,6.031c-3.801,2.419-8.156,4.759-12.844,5.156c0.391,3,7.814,1.768,5.188,7.594
	c-4.829,4.061-0.679,4.02,4.031,4.375c1.067,4.671-4.433-0.736-5.438,2.781c-6.743,2.836-7.159-5.166-9-6
	c1.383,1.931-1.509,6.504-5.563,6.031c1.591-5.018-4.395-5.022-7.375-0.719c-4.898-0.159-1.55,6.226-5.031,5.406
	c-1.866-4.712-5.372,4.74-1.938,6.563c5.118-0.692,3.001-3.264,8.094-1.188c-1.517-2.05,0.132-1.869,2.594-1
	c2.534,3.044,10.954-4.554,13.5,0.656c-0.845-2.122,3.072-4.846,6.031-1.813c6.853-0.963-1.828,3.772-3.125,0.594
	c-0.88,2.108-2.127,8.455-3.125,3.375c-0.73,4.498-8.047,3.838-11.844,6.469c-1.715,0.833-5.468,3.222-4.438,4.5
	c6.796,5.135-6.529,3.441-4.75,7.531c1.949,0.801,2.586,2.811,2.344,5.688c3.038-2.039,8.116-10.011,7.813-0.906
	c-5.252,2.387,3.52,1.278,2.406,4.563c3.776-2.162,9.857-5.94,12.969-5.688c2.248-0.098,8.036-5,14-5.219
	c-0.907,2.686-8.801,2.458-10.438,6.844c1.315,2.865-2.423,0.565-3.906,3.438c-0.596-0.913-3.094-0.515-5.625,1.875
	c3.314,1.341-0.707,4.967-4.656,4.063c-0.153,1.207,2.702,4.657-2.469,4.469c-2.825,3.312,0.789,0.974,3.875,1.281
	c5.492-0.036,7.591-5.685,14.156-4.906c5.008-0.947,11.665-3.004,11.344-7.5c0.384,5.022,5.958,0.759,4.469,4.5
	c-3.572,4.262-11.853,5.116-16.25,9.281c-3.916,3.271-2.292,3.89,1.781,1.313c1.987-0.616,11.668-5.883,8.313-3.094
	c-2.571,5.554-12.903,6.724-11.938,11.594c1.184,0.684,4.963,0.595,5.563-1.844c2.518-5.506,3.777,1.174,6.25-2
	c1.537-1.748,6.982-0.854,6.906-4.188c3.532,1.756-0.098,5.247,3.5,7.063c4.071-2.055,4.621-2.748,7.438-1.219
	c0.742-4.085,4.078-1.587,5.344-5.25c-2.465-3.257,4.399,0.758,5.938-1.563c2.597,4.167,3.849,2.466,6.469-0.594
	c2.821-2.95,5.274,1.251,8.5,0.344c-1.597-4.581,4.827-7.915,7.188-3.219c0.076-0.195,1.481-6.145,0.969-7.219
	c2.758,3.5,4.365-0.308,8.313-1c3.118-2.199,5.036-6.723,2.094-10.094c0.671-3.832-5.898,0.405-3.75-3.25
	c2.774,2.781,11.717-1.781,10.344,1.938c-8.387,5.189-0.169,6.514,3.375,4c6.262,1.061,3.234-4.074,8.25-4.906
	c6.252,0.889,0.069-3.158,2.906-3.094c0.347-7.305,7.725,0.667,8.719-4.906c4.94-0.298,6.463-3.118,8.688-6.281
	c-3.005,0.443-4.874-5.422-0.688-2.375c4.66-5.816,13.855-3.079,19.531-5.156c3.123-0.435,1.442-2.195,4.125-1.688
	c-3.217,3.496,3.453,3.776,5,0.5c1.169-2.042,0.212-5.563-0.875-9.5c1.001,1.14,5.35,6.124,4.5,9.719
	c-4.525,5.337,2.403-0.67,3.969-1.938c0.215-3.576-0.848-3.335,3.094-6.281c-1.279,3.71-2.425,4.783,2.656,3.594
	c4.621,1.931,8.189,4.605,12.125,0.563c-1.512,2.997,4.503-0.956,3.531,1.5c1.812,2.983,6.263-6.004,1-6.75
	c-0.588-1.108-0.394-2.221,0-3.313c-0.807,1.24-4.028,1.092-3.125-2.813c3.091-1.449,4.462,1.623,3.969-4
	c3.69-6.465,10.488-12.383,6.906-20.406c3.165-5.067,3.357-10.358,5.688-15.625c1.811-2.829,7.478-9.293,3.563-11.656
	c-0.396-6.411,0.548-13.287-3.188-18.844c1.63-6.168-3.464-6.377-5.969-11.063c1.315-5.012,6.878-0.77,8.438-2.844
	c-0.138-0.726-1.083-0.717-1.656-0.844c-5.383-2.097-0.416-8.729,0.281-13.094c-2.606-4.524-8.941-7.224-8.656-14.25
	c1.605-5.15-0.358-6.462,0.25-11.094c-4.35-0.57-8.706-5.272-6.125-10.75c0.696-6.9,7.879,3.021,12.188-1.188
	c1.141-3.024-7.551-5.936-6.188-7.656c0.169-0.213,0.486-0.42,1-0.594c1.376,2.507,9.227,1.925,5.813,4.563
	c4.491,1.648,11.035-3.989,11.75-8.906c-0.353-4.823,0.779-9.282,6.813-8.688c5.017,2.958,7.041-0.554,9.813-5.125
	c1.036-5.928-3.306-7.477-7.688-3.438c-0.257-0.834,5.976-7.889,2.375-10.125c-0.512-3.171-1.47-3.918-2.813-6.219
	c0.044-6.065,7.69,1.499,7.813,4.563c0.08,4.786-2.526,8.559,1.125,12.813c2.31,0.088,3.103-4.358,2.906-6.969
	c3.143-4.173-0.245-6.395-0.563-10.719c-2.025-3.698-2.157-13.135-8.188-10.906c-5.185-0.977-10.237,1.798-13.063,6.031
	c-3.201-7.104,6.84-9.107,10.5-12.781c3.839-4.232-6.541-12.8-3.719-6.188c3.461,4.11,2.644,2.786-1.25,1.156
	c-1.248-4.646-3.655-10.006-7.469-13.719c-4.736,0.243,2.126-10.159-5.188-6.906c1.601-5.966,0.081-18.093-9.063-13.313
	c-2.792-1.563-7.154-3.059-10.844-3c-1.678,0.027-3.216,0.369-4.406,1.188c-5.595,1.933-10.241,5.529-16.781,5.156
	c-5.818-4.547-3.903,1.667-6.313,5.688c-0.72,6.906-6.731,4.506-11.5,4.5c-0.179-0.245-0.315-0.519-0.406-0.781
	c-1.357-3.933,6.797-9.65,11.125-11.813c7.843-1.749,1.32-6.596-2.375-6.156c-5.493-2.965-8.027-9.445-15.594-9.219
	C191.65,579.183,191.442,579.175,191.281,579.188z M236.906,627.906C238.457,634.571,233.367,629.634,236.906,627.906z
	 M236.031,633.844c0.623-0.021,1.143,0.669,1.125,2.469c3.651,3.266,8.594-3.609,11.375,0.469
	c-2.045,3.646-6.259,8.118-1.594,10.125c-4.632,2.372-3.424,6.273-5.469,8.469c-3.12-0.216-5.091-3.869-9.188-1.281
	c-6.624-4.776,6.297-8.072,1.875-14.281C232.677,637.341,234.661,633.89,236.031,633.844z M169.781,651.625
	c1.465-0.064,2.911,0.259,4,1.125c-0.017,2.381,0.259,4.82,1.938,7.531c3.403-0.044,2.929,10.04,0.875,2.625
	c-3.203-3.665-9.985-7.003-13.625-6.531C163.162,653.835,166.558,651.767,169.781,651.625z M183.094,673.625
	c1.656-0.029,1.482,2.71,3.5,3.719c0.453,3.913,4.514,7.619,0,5.75c1.334-2.12-5.409-6.743-5.406-8.688
	C182.023,673.868,182.63,673.633,183.094,673.625z M139.375,674.563c-0.657,1.078,5.445-1.14,5.469,0.938
	C142.991,677.69,136.841,676.949,139.375,674.563z M71.719,679c0.748-0.002,1.619,0.293,2.188,0.625
	c0.733,5.168-3.315,1.546-2.844-0.5C71.273,679.058,71.469,679.001,71.719,679z M157.188,683.125
	c0.616-0.001,1.534,0.12,2.906,0.406c0.617,3.113-2.331,12.26-2.844,4.75C157.811,685.588,154.518,683.133,157.188,683.125z
	 M97.25,688.406c1.03-0.05,2.6,0.844,3.5,2.656c-3.773,3.444,5.076,5.32-0.406,6.875c-3.767-0.004-4.692-6.739-2.656-5.625
	C95.614,689.746,96.082,688.463,97.25,688.406z M148.594,694.313c0.525,0.006,1.229,0.508,2.125,1.813l-0.25,0.125l-0.063,0.375
	C147.239,700.344,146.714,694.292,148.594,694.313z M102.656,697.594c0.481-0.081,1.018,0.553,1.344,2.625
	C100.505,702.677,101.427,697.798,102.656,697.594z M139,698.719c0.378-0.017,0.904,0.118,1.625,0.531
	c0.601-0.334,0.799,0.401,0.281,0.656c-1.455,2.761-1.324,5.413-4.156,2.406C138.34,702.146,137.362,698.793,139,698.719z
	 M195.906,711.125c0.436,0.09,1.681,0.286,1.344,1.031C195.671,716.764,189.494,714.093,195.906,711.125z M97.781,717.469
	c0.521,0.025,1.631,3.238,2.063,3.281c0.159-0.684,1.337-1.059,1.156,0c-1.634,5.563-2.66,2.603-3.438-0.75
	C97.436,718.101,97.543,717.457,97.781,717.469z M96.094,723.094c0.183-0.001,0.36,0.027,0.563,0.094
	c0.753,3.709,0.145,7.309-1.156,9.688c-3.007,2.908-7.544-3.165-6.688-2.5C92.568,730.354,93.342,723.119,96.094,723.094z
	 M192.031,724.063c0.327-0.016,0.72,0.105,1.125,0.375c2.822,3.303,3.971,6.048-0.344,2.063
	C189.842,727.672,190.266,724.15,192.031,724.063z M159.844,724.375c0.288,0.013,0.65,0.135,1.094,0.438
	c-1.197,3.186,1.409,8.492,3.063,9.531c2.138-1.307,4.883-1.608,4.125,0.375c-5.123,1.83-1.327,6.607-3.094,6.906
	c-3.777,1.285-3.072-2.076-3.75-2.75c0.776-4.667-1.006-4.907-3-7.406C159.214,730.446,157.826,724.28,159.844,724.375z
	 M191.375,730.719C197.136,737.708,186.368,730.96,191.375,730.719z M97.594,736.031c2.441-0.028,3.593,1.175,3.625,4.375
	c-1.646,4.253,7.503,4.101,8.094,5.313c-5.18,2.323,3.997,8.709-3.406,8.656c-3.441-3.803,1.918-8.897-4.594-9.094
	c-4.235-0.025-6.905-5.799-13.125-5.844c1.291-3.102,5.762,1.252,3.594-2.156C94.198,736.531,96.129,736.048,97.594,736.031z
	 M191.75,739.375c0.156-0.012,0.294-0.004,0.469,0c0.18,0.004,0.362,0.009,0.563,0.031
	C190.767,747.28,186.907,739.732,191.75,739.375z M151.563,772.969c0.081-0.007,0.143-0.002,0.219,0
	c0.527,0.015,0.94,0.281,1.094,1.125c-6.007,1.507-6.118,7.33-4.906,11.188c-2.714,1.254-0.532,3.552-5.563,2.25
	c-0.633,2.422-4.697,9.93-3.969,3.563c4.474-3.975-6.101-2.89,0.688-5.438c4.848,0.876,7.182-2.488,4.313-6.5
	c4.049-0.113,2.039-3.554,4.25-5.75C148.947,773.959,150.487,773.069,151.563,772.969z M241.875,834.75
	c-0.059,0.134-0.134,0.292-0.188,0.438C241.769,835.054,241.856,834.91,241.875,834.75z M83,855.594c0.046-0.01,0.072-0.003,0.125,0
	c0.47,0.026,1.248,0.492,2.344,1.688c0.429,0.465,2.011,0.443,1.5,1.344C83.561,860.878,81.594,855.811,83,855.594z"/>
<g id="layer5">
	<path id="path2408" fill="#FF1D1D" stroke="#727271" stroke-width="2" d="M406.823,612.535c6.456-0.589-4.773,3.972,0.838,2.997
		c-0.762,5.78-9.527-3.154-12.299,3.022c2.879,1.257,1.067,5.266-2.081,2.698c-2.2-0.622-6.251,7.151-5.559,10.747
		c-6.499,5.282-5.767,13.973-9.255,20.4c1.617,7.011,12.169,12.77,11.01,21.062c1.202,3.405,6.844,10.404,8.168,4.795
		c1.502-9.321,2.812,3.855-0.078,4.518c-0.463,3.478,1.063,5.398,3.727,7.525c0.611,0.798,3.616-3.792,5.047-6.739
		c1.286-6.17,2.44-0.467,5.326,0.139c1.02-1.708,8.47-6.162,5.435-2.76c4.116,5.293,0.775,8.272-3.028,12.119
		c-0.072,4.501,3.798,2.265,2.391,5.936c1.667,2.544-5.048,2.622-8.401,3.315c-3.156,7.336-2.741,21.394,8.851,15.974
		c-3.24,2.83-10.733,7.832-12.687,14.71c3.376,5.597,3.825,13.647,9.923,17.331c2.289,4.737,10.191-1.712,7.655,2.961
		c-5.194,7.972-12.766-3.278-13.479-9.144c-10.561-0.966-5.867,11.125-4.391,13.855c2.431,2.276-0.049,0.092,2.294,1.765
		c2.343,1.673,0.488,0.343,0.488,0.343s4.303,3.529,5.238,5.571c0.935,2.042-2.68,0.495-2.493,1.98
		c0.187,1.485,1.122,1.176,2.991,4.455c1.869,3.279,3.739,8.662,3.739,8.662l4.487,0.742l0.748,5.198c0,0-1.62,2.722-2.991,2.475
		c-1.371-0.247-0.623-2.599-2.493-3.465c-1.869-0.866-3.303,0.495-4.985,0c-1.682-0.495-0.561-1.918-1.745-1.98
		c-1.184-0.062-1.371,1.052-2.991,1.732c-1.62,0.681-1.994-1.98-3.49,0.99c-1.496,2.97-3.103,9.565-2.493,10.89
		c0.246,0.534,7.976,4.826,8.225,5.197c0.899,1.339-5.898,8.532-8.225,12.128c-1.122,1.733,0.132,3.552,1.745,3.713
		c0.623,0.062,3.677-3.96,4.736-3.465s0.241,4.417-0.499,5.445c-0.471,0.655-4.736,0.557-7.478,1.733
		c-2.742,1.176-3.49,2.97-3.49,2.97s5.008,8.669,8.973,8.167c3.427-0.433,5.047-0.681,4.736,0
		c-1.782,3.894-6.657,9.892-8.973,16.583c-0.685,1.98,1.122,6.435,3.24,11.138c2.119,4.702,2.521,6.55,5.234,7.672
		c0.748,0.309,3.988-1.671,4.736-1.485c2.677,0.665,1.851,6.695,7.908,6.856c3.301,0.088,0.958,16.224,1.162,19.332
		c5.465-2.743,8.79-10.693,15.28-12.859c1.946-3.525,4.067,0.004,0.342,0.879c-5.972,4.655-9.811,12.501-14.022,18.919
		c-5.574,0.218-9.186,8.506-12.563,9.606c-0.269,4.36-3.2,3.6-2.36,7.586c2.226,4.948-1.487,8.04-6.569,6.507
		c-5.919,3.016-12.823,2.495-18.029-1.234c-4.854,0.665-10.269-1.381-15.466-0.37c-5.678,1.051-17.631-0.524-19.24,4.425
		c-4.246,2.603,2.892,7.206-2.267,10.608c-3.397,6.746-9.075,0.531-13.681,1.234c-0.044,2.621,0.637,5.348-0.851,7.592
		c-1.487,2.244-1.836-8.122-0.169-0.629c1.667,7.494-1.954,13.066-6.59,17.677c-5.516,0.867-2.034,9.589-9.1,8.696
		c-3.792-0.573-2.127,1.646-3.913,2.437c-4.445-1.066-4.285,5.444-5.529,10.192c-6.098-0.251-3.068,5.516-7.593,7.833
		c-2.452,4.717-8.642,5.394-10.885,9.653c-4.012-3.156-7.975,1.144-12.625,2.806c-1.658,2.376-2.639,7.37-0.233,9.159
		c7.688,3.167,5.532-9.024,11.647-5.798c7.516,0.416,9.04,7.004,12.096,11.904c1.118-0.856,3.122-4.393,5.823-4.441
		c4.999-3.595-4.023-5.709,0.202-7.386c2.779-2.714,0.014-4.378,2.718-7.571c0.471-0.031,1.219,4.834,1.056,5.489
		c1.948-3.213,3.908-4.199,6.522-6.106c4.922,0.322,4.893-3.295,5.777-6.676c0.826-4.419,4.402-0.143,5.652-1.218
		c6.9,1.806,11.783-4.348,18.712-1.819c2.273,5,6.964-0.045,2.235-1.174c5.939-2.246,5.68,7.668,11.881,4.705
		c4.775-2.004,6.299,7.358,10.295,6.245c4.107,1.961,7.2-0.263,7.004-5.15c3.388-2.088,2.742-5.461,5.528-3.932
		c3.889-4.376-0.728-3.763-1.025-8.095c5.54-0.457-0.543-5.63,3.991-8.789c3.514-2.046-1.983-12.723,1.926-6.522
		c2.471,7.589,7.172-3.242,11.631-3.223c7.711,1.101,14.535-6.32,21.911-1.172c5.61,3.86,16.191,7.617,14.768,15.08
		c0.847-0.645,0.764-2.018,1.739-2.637c-2.524-3.014-1.578-9.348,4.596-6.815c7.015-0.31,11.963,3.812,18.184,2.961
		c2.658-2.673,1.874-4.255,1.351-6.538c-3.856,0.232-4.029-2.194-6.196-1.126c-2.476-0.865,2.451-2.521,4.923-2.174
		c1.225,5.815,5.629-3.219,10.248,0.231c0.487-0.408,0.939-2.925,4.892-2.082c5.017,3.513,6.492-0.552,11.041-2.575
		c7.59,0.394,6.517-6.236,1.475-9.02c-7.217-3.943,2.242-0.924,4.162,2.344c3.198,0.988,8.034,8.738,10.063,4.04
		c-3.12-3.111-1.19-3.917,2.391-2.745c-4.271,3.118,1.715,7.326,1.863,0.879c4.506-4.259,0.116,5.106,1.506,3.917
		c4.713,2.286,0.993-8.745,3.758-3.593c-0.407,0.251,5.52-0.275,1.537,2.56c-2.917,1.492,8.5,8.147,7.003,2.729
		c1.928-1.579,12.501-2.586,17.796-3.731c11.083-5.015,21.873,2.921,32.315,4.98c3.981-7.522,12.859-7.599,20.296-10.192
		c3.626-6.178,9.439-4.843,15.327-3.423c-2.036-7.292,5.036-13.308,11.786-13.77c5.77-1.244,12.712-6.079,9.55-13.43
		c-3.894-5.403,3.68-4.987,2.578-10.439c-1.666-0.743-3.711,0.105-5.451,0.293c-9.283-0.841-17.844,5.696-26.725,2.174
		c3.224,0.923,10.957-1.592,3.649-4.95c-3.548-1.945-7.366-1.291-7.531,0.525c-1.162,0.088-1.331,4.203-4.985,2.22
		c-6.02,1.189-0.619-5.251,3.215-3.732c4.887-2.86-6.293-4.765-9.053-3.87c-1.207,0.591-7.344,4.938-4.798,2.066
		c1.746-5.36,8.366-3.21,11.475-5.751c4.632,0.949,10.165,0.513,13.433-4.24c4.702-3.619-1.555-2.127-2.422-1.712
		c-5.441-3.603,1.884,0.421,3.649-3.331c3.458-5.187-0.891-9.974-5.652-5.597c-1.849,0.922-4.736,1.154-4.83-1.373
		c6.479,1.454,7.339-5.564,13.199-5.69c3.023,5.449,10.702,1.914,13.712-2.683c3.28-5.419-1.059-0.183-3.354-2.776
		c1.993-2.258,7.34-6.586,0.326-5.412c-5.903,0.782-4.021-2.481,0.404-0.848c6.204,2.048-1.043-5.95,3.245-2.066
		c2.154,7.991,7.353-1.58,9.178-5.351c6.406-0.702,8.258-8.125,7.935-14.093c1.263-7.749,6.652-14.625,6.879-22.219
		c-0.982-10.239-1.672-22.49-12.687-27.631c-5.952-7.495-15.507-7.568-23.696-10.608c-5.153-1.388-0.449,0.709-1.848,1.172
		c-6.152-0.883-10.812-0.978-17.594-0.725c-6.183-2.167-9.293,4.315-10.124,10.053c-2.963,2.686-2.182,8.248-5.497,3.007
		c-7.195,3.12-7.896-11.001-15.653-6.368c0.865-3.356,6.204-7.922,9.395-12.089c6.003-3.575,9.673-8.986,7.004-16.098
		c-3.209-9.765-5.753-19.983-15.327-23.7c-3.104-5.557-8.851-5.809-12.687-11.317c-1.29-6.764-6.769-3.783-11.46-3.793
		c-3.519,3.7-6.251-0.883-8.991-0.556c-5.84,2.956-3.658-1.756,1.149-2.035c5.757,5.285,14.708-4.474,19.131,1.727
		c3.447,5.03,8.428,7.49,14.022,5.335c5.658-0.391,2.045,8.333,4.348,4.502c0.199-7.753-7.778-13.696-11.134-20.477
		c-5.076-6.527-11.249-20.849,0.264-23.884c-1.983-3.407-11.357-2.532-9.426-7.972c-6.232-2.29-7.188-7.419-9.022-13.091
		c-3.28-4.219-3.563-10.081-9.628-11.225c-5.645-6.389-14.371-6.005-20.933-10.5c-4.975-4.128-2.61,3.74-6.491,1.064
		c2.092-2.899-0.758-5.267,1.149-7.586c-7.998-3.754-8.328-13.948-9.457-21.479c-2.753-5.999-5.774-10.91-7.454-17.177
		c1.152-5.028-3.999-9.004-2.112-14.217c-2.325-3.884-1.66-7.912-1.491-12.52c-1.611-5.066-1.132-9.553-5.171-13.137
		c-4.408-0.982-2.864,0.095-4.348-3.362c-1.197,0.968-4.037,0.148-4.938-3.731c-3.256-2.942-6.832-6.743-9.037-10.647
		c-2.205-3.904-0.818-0.281-2.198,1.909c-1.379,2.189-2.456,2.415-3.001,3.498c-0.533,1.057-1.031,1.723-1.763,2.45
		c-0.594,0.59-1.634,1.272-2.291,1.925c-0.62,0.616-0.713,1.933-1.234,2.45c-0.768,0.763-1.381,1.597-2.291,2.275
		c-0.909,0.677-1.126,1.145-1.41,2.275c-0.2,0.793,0.028,1.862,0.176,2.45c0.219,0.87,0.301,1.824,0.705,2.625
		c0.499,0.992,1.868,2.03,2.468,2.625c0.418,0.415,0.667,2.096,1.234,2.8c0.458,0.568,0.179,2.111,0.353,2.8
		c0.263,1.044,0,1.952,0,2.975c0,1.32-1.351,1.808-2.291,2.275c-0.882,0.438-1.322,1.692-1.763,2.275
		c-0.663,0.877-1.274,0.72-2.291,1.225c-0.824,0.409-1.488,1.789-2.468,2.275c-0.105,0.052-0.235,0-0.352,0
		c-1.057,0-2.059,1.345-2.644,1.925c-0.833,0.827-1.849,1.29-2.996,1.575c-0.669,0.166-1.688,1.271-2.291,1.75
		c-0.815,0.647-1.859,1.73-2.644,1.925c-0.804,0.2-0.855,1.294-1.057,2.1c-0.245,0.973-0.449,1.592-0.881,2.45
		c-0.45,0.894-0.95,1.362-1.41,2.275c-0.599,1.19-1.51,2.199-2.467,3.15c-0.936,0.93-1.71,1.374-2.82,1.925
		c-1.257,0.624-1.573,1.266-2.82,1.575c-0.748,0.186-1.706,2.335-2.291,2.8c-0.668,0.53-1.367,0.646-2.291,0.875
		c-1.147,0.285-1.403,1.225-2.82,1.225c-0.497,0-1.618,3.716-2.025,4.019c-0.407,0.303,3.703,0.435-0.156,1.053 M470.422,553.102
		c-2.742,2.515-4.998-3.28-0.152-0.389L470.422,553.102z M593.865,781.146c4.055,1.575-4.408,0.409-0.413-0.023L593.865,781.146z
		 M621.155,869.897C619.992,871.905,619.757,868.815,621.155,869.897z M608.18,877.925c-5.758,2.976-4.111-2.452,0.648-0.731
		C609.472,877.77,608.604,877.933,608.18,877.925z M246.162,1019.246C250.755,1020.338,243.723,1020.432,246.162,1019.246z
		 M245.775,1022.271C248.3,1024.696,242.484,1024.363,245.775,1022.271z M243.704,1019.992
		C247.19,1021.877,242.365,1022.055,243.704,1019.992z M327.076,924.303C328.558,928.659,324.812,927.461,327.076,924.303z
		 M397.404,683.965c-2.575,3.982,6.758,11.243,0.428,6.569C397.215,688.947,394.686,684.246,397.404,683.965z M401.683,646.001
		c0.221-0.032,0.498,0.261,0.839,1.095C400.914,652.381,400.725,646.14,401.683,646.001z M411.419,661.79
		c0.113,0.004,0.314,0.109,0.637,0.339c3.665,2.126-1.521,14.984,0.248,6.198C414.267,666.709,410.627,661.761,411.419,661.79z"/>
	<path id="path4771" fill="#FF1D1D" stroke="#727271" stroke-width="2" d="M505.235,964.801c-5.723,1.067-4.353,10.095-11.816,7.325
		c-2.632-4-11.203-6.806-12.077-6.633c2.15-4.715,7.289-2.988,8.681-5.064c3.854-5.916,8.795,0.747,13.707,0.455
		C503.868,962.222,506.747,963.594,505.235,964.801z"/>
</g>
<g id="layer1">
	<path id="path26828" fill="#FF1D1D" stroke="#727271" stroke-width="2" d="M406.623,611.961c-0.407,0.303,3.703,0.435-0.156,1.053
		c-3.859,0.618-7.422,1.5-11.495,0.947c-4.073-0.553-7.954-1.495-10.867-1.296c-1.248,2.057-4.485-2.171-3.013,3.191
		c1.471,5.461-2.038,7.032-6.894,6.137c-3.606,3.225-5.942,1.253-5.715,0.37c-1.946,3.3,0.869,5.062-4.737,7.386
		c-3.942,4.007-8.198,0.469-6.584-4.24c-1.639,4.009-1.968,7.954-5.978,3.469c-2.734-1.522-0.027-8.988-3.975-3.685
		c-4.196,0.908-5.924-5.603-6.988-5.551c-3.857,3.729,1.061,6.824,2.625,9.93c-2.527,1.421,1.519,7.413-1.584,9.267
		c-6.068-0.086-8.546-5.624-12.314-8.974c-3.776-1.596-7.834-4.938-10.591-6.522c-6.126,1.855-7.379,6.286-4.115,11.179
		c1.788,2.702,3.346,7.367,2.096,8.48c-6.563-1.458-2.262-8.401-6.724-11.21c-4.385-4.786-12.565-14.509-6.662-21.001
		c6.324-2.352,1.573,11.265,7.967,8.218c-2.96-5.146-5.367-11.285-1.662-17.254c2.743-6.123,10.217-10.196,9.038-18.38
		c3.738-3.421,3.611-9.767,9.829-10.547c3.05-3.68-1.183-8.119-1.506-9.174c1.168-6.523-7.822-5.89-8.991-10.485
		c-7.247-2.46,3.105-7.301-2.407-11.827c-1.965-6.492,1.512-17.66,9.131-11.534c2.382,0.048,13.216,2.322,9.131,0.385
		c-6.993-0.229-12.194-8.352-15.342-11.025c0.251,3.26,6.867,8.584-0.357,6.507c-4.15-3.256,1.101-10.911,0.326-11.657
		c-3.146,6.423-2.964-8.167-3.509,0.293c1.266,2.752,1.602,10.744-0.823,11.04c0.753,1.614-0.687,10.067-4.24,11.734
		c-3.328-0.401-2.351-13.111-4.192-8.188c3.256,7.827-4.772,0.747-5.047-1.002c-1.016,4.269-2.556,7.268-0.466,11.534
		c-5.524-0.957-8.477-5.988-7.159-11.426c-0.056-5.575,5.022-11.722,9.193-15.419c5.448-1.85,4.795-8.474,11.072-10.177
		c1.444-2.89-5.77,2.349-6.755,2.698c-1.168,6.774-10.087,7.32-11.77,14.14c-1.159,3.46-5.283,5.77-6.584,3.531
		c-0.364,8.12,3.236,13.615,6.537,20.8c-4.492,3.252-9.943,10.084-7.873,15.974c1.064,2.352-1.788,6.624-2.267,10.346
		c-0.948,3.678-4.602,4.838-0.574,7.154c2.881,7.219-9.225,11.362-14.24,8.434c-1.735-6.236,3.631-9.472,5.093-14.217
		c-0.766-6.659,1.133-13.914,3.028-19.197c1.897-5.357,9.244-9.429,9.597-13.985c-2.749,3.362-6.455,9.858-9.317,5.011
		c-4.261-4.041,3.756-11.155,2.919-12.536c-2.483,3.985-7.212,4.435-4.193-1.079c4.159-3.553,6.628-12.496,2.081-5.674
		c-2.004,2.494-4.093,9.544-3.463,2.498c3.01-3.437,3.761-10.55,8.385-9.328c-3.644-1.901,2.175-7.332,0.435-8.943
		c-2.33,3.696-6.392,7.923-3.23,0.879c3.034-3.613,0.294-4.234-0.217-7.463c-0.176-7.256,4.713-11.397,7.624-17.223
		c2.031,0.016,14.242,0.804,5.637-0.463c-2.919,0.576-4.419-1.628-5.342-3.284c-3.128,4.986-0.306-5.376,3.494-1.727
		c3.31-1.272,8.216-5.396,1.739-2.22c-5.408,3.184-3.875-3.687-1.335-6.538c3.064-2.494,2.233-6.187,8.215-6.461
		c3.555,2.396,9.011-3.579,2.733-0.015c-8.579-0.048-2.867-6.465,0.202-10.331c1.546-3.564-5.595,4.087-5.73,5.613
		c-1.511,3.854-5.788,3.851-7.718,8.496c-5.037,1.42-8.347,13.135-14.845,12.674c-3.697-2.834-4.461-3.038-9.861-4.179
		c-5.612-3.262-7.382-12.089,1.118-9.02c3.648-3.674,7.369-4.859,12.066-2.436c8.051-2.492-1.931,0.474-4.348-2.714
		c-4.127-0.351-7.442,4.891-11.941,2.266c-3.591-1.372-14.147,2.48-13.401-4.394h-0.031c2.913-3.739,9.418-2.663,13.82-4.024
		c2.984,3.957,3.711-0.052,4.426-0.17c3.513,0.772,5.777-2.11,0.389-3.516c0.064-3.753,10.727-1.983,8.587-5.89
		c-1.577,4.17-7.856,0.996-2.221-0.694c-2.859,0.168-13.711,1.174-7.392-1.002c1.44-0.526-0.137-4.072,1.708-6.816
		c0.698-6.261,6.483-3.015,9.146-0.431c3.204,0.543,10.229-3.656,3.013-1.172c-5.556,1.619-2.344-6.901-7.516-3.978
		c-5.524-4.268,5.929-12.196,9.348-5.674c3.51,1.489,8.867-2.28,2.189-0.37c-1.391-2.7-5.498-3.602-8.432-5.057
		c1.983-3.338,3.022-5.183,2.64-8.326c4.968-3.964,6.791,2.386,11.522,2.667c0.579-0.707-5.387-3.252-7.096-5.304
		c-4.329,1.04-13.339-0.762-6.103-5.473c4.033,0.348,12.271-4.691,10.482-7.093c-2.362,4.533-10.869,7.702-7.826,1.172
		c-2.451,3.128-10.952,7.879-9.737,1.187c0.01-2.123,1.186-5.251-2.531-5.397c-1.214-5.168,1.045-16.874,5.699-9.205
		c2.226-1.398,2.853,3.398,5.171,2.96c-2.469-2.966,10.753-0.419,3.401-3.284c-5.365,0.827-4.995-1.062-7.407-2.714
		c-0.05-4.573-7.162-4.871-2.981-9.468c0.685-3.475,8.149,1.351,3.727-3.778c-7.026,0.313-4.391-8.559-5.202-12.705
		c4.749-0.561,7.546-0.669,7.516,5.351c1.463,4.314,2.496,2.802,3.137,1.449c2.79-1.063-1.015-6.444-2.314-8.866
		c0.316-5.632,5.418-2.921,5.466,1.45c5.718,5.719,3.441-7.323,9.115-1.835c1.869,3.812,10.224,4.449,3.401,1.141
		c-2.482-2.147-8.696-5.763-2.702-5.366c1.542,3.886,6.516,0.835,9.007,5.058c2.998,1.569,5.407,7.057,2.981,0.802
		c-3.183-2.573-7.118-4.231-4.705-7.664c-4.739-1.98-9.192-6.289-11.6-8.958c-4.332-3.595,1.155-6.837,2.904-1.527
		c1.902-1.102,8.441,0.57,4.782-4.086c1.457-1.293-0.213-1.456,1.771-3.331c-4.247-0.971-4.932-5.896-7.826-8.974
		c1.964-2.609,5.661,3.162,9.566-0.509c3.355,0.889,4.659-3.39,8.246-0.169c2.798,0.068,4.266,3.159,3.556-0.123
		c1.233-0.029-11.06-2.995-8.572-6.831c-2.177,0.358-0.629-10.645,2.718-6.893c6.317,2.251-1.484-1.887-0.482-2.405
		c-0.587-4.311,7.875,0.554,3.727-3.439c-5.814-0.901-4.858-6.513-0.388-9.575c1.116-2.045,0.213-4.631,1.087-6.692
		c3.474,1.606,8.577,1.471,9.457,5.936c2.764-1.114,0.849-6.105,3.168-0.925c7.212,1.799,1.385,7.476-0.854,12.012
		c3.543-0.974,4.467-6.628,8.323-9.036c-2.369-7.656,14.124-0.05,6.646,5.027c-3.007,5.839,0.925,3.625,1.786-0.601
		c1.902-5.208,8.902-3.109,9.006-3.269c1.563-2.919,3.782-0.005,5.575-3.454c3.984,4.124,5.058-6.997,6.367,0.185
		c6.51,0.995,12.233,0.035,17.206-5.15c4.548-1.115,4.944,1.479,7.904,1.65c3.308-0.428,10.816,1.295,4.829-3.516
		c0.055-1.876,0.414-2.523,0.994-2.575c1.48-0.094,4.395,3.799,7.33,1.419c3.414,1.658,7.998-0.264,11.025,1.357
		c0.049,5.266-7.013,9.221-5.435,14.771c2.268,1.626,7.576-0.368,3.37,4.502c-2.135,7.76-7.89,12.982-15.7,15.466
		c-4.333,6.098-8.915,12.523-15.326,16.514c-3.982,2.99-7.886,5.527-9.954,9.529c-4.943,1.554-7.002,5.271-5.978,9.375
		c-0.431,3.977-6.395,4.282-10.031,2.992c2.152,3.914,8.54,4.369,12.221,2.081c3.134,1.481-1.348,3.421,3.882,1.496
		c2.369-0.132,5.706-7.761,4.426-1.419c-3.437,4.915-6.933,10.922-11.444,14.047c0.889-4.328-1.862-5.973-5.047-2.436
		c-3.475,4.088-9.71,1.289-11.366,7.185c-4.637,2.335-5.554,8.865-0.606,2.76c3.794-5.409,8.358-7.187,13.323-5.582
		c6.821-3.841,2.581,1.965-0.078,5.242c-0.451,3.14-3.797,3.125-5.28,5.443c-5.576-1.365,2.387,1.574-2.298,4.548
		c4.598,2.179,7.589-3.819,10.497-6.476c-4.836-4.254,8.479-0.187,11.305-3.1c3.823-4.915,9.173-5.432,14.488-6.43
		c6.984-10.062,17.315,1.678,26.477,0.154c3.985-3.25,8.12-3.048,12.826-1.095c6.502-0.331,15.111,3.858,20.715,0.231
		c3.322-0.011,7.543,2.099,10.777-0.987c5.819-0.016,9.206,2.395,12.796,7.031c1.843,2.05,0.442,8.187,3.758,10.747
		c-2.607,0.837,1.672,3.615-2.159,5.859c-3.478,6.437-15.183,16.573-12.687,27.308c1.16,6.764-7.991,12.166-5.823,19.629
		c-1.606,6.458-7.644,11.972-11.647,14.725c-1.126,4.797-0.754,6.824-4.332,10.115c2.448,5.637-6.29,9.46-10.265,12.752
		c-0.724,5.066-5.016,0.836-8.401,3.362c-6.551-0.558-13.317,2.573-17.904,8.373c-5.896,0.024-3.983,2.428,0.854,0.94
		c5.943-2.485,11.548-6.884,17.237-8.434c5.802-0.343,1.872,7.475,2.531,7.802c1.568,4.419,12.985,2.635,11.087,8.928
		c-4.303,5.196-10.918,8.243-17.019,5.058c-4.778,3.567-10.457,7.721-11.615,13.276c-6.499-0.993-11.022,6.643-17.144,1.773
		c-3.415-4.325-13.25,0.749-5.699,2.113c5.448,0.002,11.19,2.199,15.917,2.513c4.45,0.559,9.284,0.558,13.23,3.285
		c4.348-0.461,9.673-3.254,9.519-7.648c2.805-4.408,14.598-3.483,14.193,3.284c6.426-2.563,11.904,8.631,19.255,6.784
		c3.236,1.873,4.442,4.523,6.032,9.587c-1.379,2.189-4.411,4.52-4.956,5.604c-0.533,1.057-1.031,1.723-1.763,2.45
		c-0.594,0.59-1.634,1.272-2.291,1.925c-0.62,0.616-0.713,1.933-1.234,2.45c-0.768,0.763-1.381,1.597-2.291,2.275
		c-0.909,0.677-1.126,1.145-1.41,2.275c-0.2,0.793,0.028,1.862,0.176,2.45c0.219,0.87,0.301,1.824,0.705,2.625
		c0.499,0.992,1.868,2.03,2.468,2.625c0.418,0.415,0.667,2.096,1.234,2.8c0.458,0.568,0.179,2.111,0.353,2.8
		c0.263,1.044,0,1.952,0,2.975c0,1.32-1.351,1.808-2.291,2.275c-0.882,0.438-1.322,1.692-1.763,2.275
		c-0.663,0.877-1.274,0.72-2.291,1.225c-0.824,0.409-1.488,1.789-2.468,2.275c-0.105,0.052-0.235,0-0.352,0
		c-1.057,0-2.059,1.345-2.644,1.925c-0.833,0.827-1.849,1.29-2.996,1.575c-0.669,0.166-1.688,1.271-2.291,1.75
		c-0.815,0.647-1.859,1.73-2.644,1.925c-0.804,0.2-0.855,1.294-1.057,2.1c-0.245,0.973-0.449,1.592-0.881,2.45
		c-0.45,0.894-0.95,1.362-1.41,2.275c-0.599,1.19-1.51,2.199-2.467,3.15c-0.936,0.93-1.71,1.374-2.82,1.925
		c-1.257,0.624-1.573,1.266-2.82,1.575c-0.748,0.186-1.706,2.335-2.291,2.8c-0.668,0.53-1.367,0.646-2.291,0.875
		c-1.147,0.285-1.403,1.225-2.82,1.225C408.151,607.941,407.03,611.657,406.623,611.961z"/>
	<path id="line475" fill="#FF1D1D" stroke="#727271" stroke-width="2" d="M479.658,195.262c-0.662,3.977-4.944,4.871-1.533-0.109
		C478.418,194.778,480.346,194.535,479.658,195.262z"/>
	<path id="line476" fill="#FF1D1D" stroke="#727271" stroke-width="2" d="M440.662,211.584c-0.328,3.708-4.811,4.039-2.194-0.054
		C439.358,211.625,441.754,209.071,440.662,211.584z"/>
	<path id="line477" fill="#FF1D1D" stroke="#727271" stroke-width="2" d="M439.408,221.741c-4.598-2.053-5.308,8.34-6.102,2.414
		c-2.428,5.267-3.273-1.594-6.584,4.18c-3.293,5.751-1.792-3.787,2.817-4.555c-2.672-4.247,7.261-5.906,1.491-1.636
		C432.169,226.594,441.645,212.776,439.408,221.741z"/>
	<path id="line478" fill="#FF1D1D" stroke="#727271" stroke-width="2" d="M432.298,237.426c0.358,2.878,1.654,3.525-2.843,4.03
		c-0.501-6.063-2.424,0.445-4.306-0.427c1.27-3.618,5.294-3.95,1.076-7.156c3.577-0.458,4.473,0.721,3.741,3.366
		C430.434,237.799,433.446,235.901,432.298,237.426z"/>
	<path id="line479" fill="#FF1D1D" stroke="#727271" stroke-width="2" d="M419.254,240.976c-0.62,4.611-0.264,6.119-5.301,4.718
		c-1.709-2.324,0.649-4.406,3.342-2.878C417.772,241.961,417.915,239.493,419.254,240.976z"/>
	<path id="line480" fill="#FF1D1D" stroke="#727271" stroke-width="2" d="M425.024,252.823c-0.067,4.828-5.518,2.679-6.915,7.619
		c-3.075-2.296-7.325-2.169-6.336-7.831c-5.373,1.845-7.074,4.157-12.203,4.197c-4.644-2.622,2.049-12.147-2.444-10.156
		c-1.712,0.857,0.519,3.477-1.503,5.64c-3.553,3.729-5.291-7.081-3.493-9.663c-2.147-7.808,8.116-10.234,12.671-5.39
		c2.563,0.427,1.228,3.856,4.956,4.883c-1.011,2.771-3.996,2.224-6.252,6.127c0.075,2.134,4.471,1.624,5.452-0.852
		c2.901,3.282,4.271-1.438,6.018,2.368c0.002,3.215,3.998-1.351,5.535,0.824c-3.108,1.421-3.447,4.815,1.133,2.419
		C421.79,251.351,424.686,251.584,425.024,252.823z"/>
	<path id="line481" fill="#FF1D1D" stroke="#727271" stroke-width="2" d="M416.231,263.252c-5.679,2.133-3.407-2.671-0.994-1.643
		C413.867,263.89,417.082,261.819,416.231,263.252z"/>
	<path id="line482" fill="#FF1D1D" stroke="#727271" stroke-width="2" d="M415.071,266.112c-3.099,1.601,0.57,12.134-4.706,6.003
		c0.996-3.631-2.929-4.411,0.482-6.056C401.164,266.418,417.859,261.501,415.071,266.112z"/>
	<path id="line483" fill="#FF1D1D" stroke="#727271" stroke-width="2" d="M407.342,273.172
		C404.922,276.557,406.924,271.069,407.342,273.172z"/>
	<path id="line484" fill="#FF1D1D" stroke="#727271" stroke-width="2" d="M404.305,278.899
		C401.964,284.476,402.214,275.597,404.305,278.899z"/>
	<path id="line485" fill="#FF1D1D" stroke="#727271" stroke-width="2" d="M401.807,260.177
		C403.437,262.777,398.936,259.367,401.807,260.177z"/>
	<path id="line486" fill="#FF1D1D" stroke="#727271" stroke-width="2" d="M401.807,262.881
		C402.954,266.86,398.934,262.223,401.807,262.881z"/>
	<path id="line487" fill="#FF1D1D" stroke="#727271" stroke-width="2" d="M405.645,265.238c-3.689,4.984-2.956-4.767-0.194-1.483
		C402.564,264.619,405.045,264.268,405.645,265.238z"/>
	<path id="line488" fill="#FF1D1D" stroke="#727271" stroke-width="2" d="M399.86,262.907c0.666,2.848,1.153,3.269-2.678,5.48
		c1.542-0.763,9.124-1.431,3.342,1.27c-6.124,2.429-8.386-4.106-10.118-8.578c-6.326-0.125,2.664-9.446,4.652-3.395
		C397.806,259.123,398.712,260.291,399.86,262.907z"/>
	<path id="line489" fill="#FF1D1D" stroke="#727271" stroke-width="2" d="M396.272,255.48
		C394.546,257.498,392.619,252.985,396.272,255.48z"/>
	<path id="line490" fill="#FF1D1D" stroke="#727271" stroke-width="2" d="M411.248,240.762
		C410.697,243.036,408.185,238.697,411.248,240.762z"/>
	<path id="line491" fill="#FF1D1D" stroke="#727271" stroke-width="2" d="M411.428,232.242c0.219,3.05-3.289,7.003-6.446,2.647
		c-3.788-2.555,1.719-8.055,3.23-3.342C409.4,230.414,412.77,230.225,411.428,232.242z"/>
	<path id="line492" fill="#FF1D1D" stroke="#727271" stroke-width="2" d="M413.995,233.873c-0.698,6.425-3.759-2.849-0.027-0.615
		l0.151,0.267L413.995,233.873z"/>
	<path id="line493" fill="#FF1D1D" stroke="#727271" stroke-width="2" d="M411.87,237.212
		C408.768,240.457,407.214,235.521,411.87,237.212z"/>
	<path id="line494" fill="#FF1D1D" stroke="#727271" stroke-width="2" d="M411.87,215.296c-4.191,4.168,3.61,3.874,5.107,7.492
		c1.695,2.257-3.159,5.419-1.642,0.751c-3.998-4.656-4.018-0.22-6.185-0.966c-1.155-3.502-5.708-6.648,0.497-5.799
		C409.511,215.121,411.932,212.857,411.87,215.296z"/>
	<path id="line495" fill="#FF1D1D" stroke="#727271" stroke-width="2" d="M415.969,213.145c0.174,4.502-2.996,5.874-1.462,0.619
		C414.351,212.368,415.619,210.369,415.969,213.145z"/>
	<path id="line496" fill="#FF1D1D" stroke="#727271" stroke-width="2" d="M418.619,227.505
		C419.229,231.766,417.062,227.138,418.619,227.505z"/>
	<path id="line497" fill="#FF1D1D" stroke="#727271" stroke-width="2" d="M423.091,227.719c-3.478,2.38,1.068,9.533-3.146,6.662
		c-3.096-3.899-0.786-3.033,0.083-5.59C419.093,223.068,421.211,224.365,423.091,227.719z"/>
	<path id="line498" fill="#FF1D1D" stroke="#727271" stroke-width="2" d="M423.27,225.067
		C424.842,228.376,420.197,223.39,423.27,225.067z"/>
	<path id="line524" fill="#FF1D1D" stroke="#727271" stroke-width="2" d="M274.873,511.827c0.955,5.234-4.202,10.893-6.199,15.806
		c-1.423-2.29-10.853,3.288-7.466-3.258C263.888,518.694,271.181,514.284,274.873,511.827z"/>
	<path id="line525" fill="#FF1D1D" stroke="#727271" stroke-width="2" d="M280.519,504.908
		C281.174,509.719,277.717,505.2,280.519,504.908z"/>
	<path id="line526" fill="#FF1D1D" stroke="#727271" stroke-width="2" d="M278.062,501.258c2.154,2.308-1.702,10.173-1.036,2.763
		C277.573,503.417,276.235,499.514,278.062,501.258z"/>
	<path id="line527" fill="#FF1D1D" stroke="#727271" stroke-width="2" d="M280.422,496.69
		C279.889,506.19,273.9,494.56,280.422,496.69z"/>
	<path id="line528" fill="#FF1D1D" stroke="#727271" stroke-width="2" d="M284.839,488.179
		C282.189,494.794,276.989,488.846,284.839,488.179z"/>
	<path id="line529" fill="#FF1D1D" stroke="#727271" stroke-width="2" d="M275.604,507.693
		C276.646,514.38,268.329,508.617,275.604,507.693z"/>
	<path id="line530" fill="#FF1D1D" stroke="#727271" stroke-width="2" d="M275.065,505.549
		C275.039,508.506,273.331,504.677,275.065,505.549z"/>
	<path id="line531" fill="#FF1D1D" stroke="#727271" stroke-width="2" d="M272.444,502.862
		C270.612,505.299,270.901,501.594,272.444,502.862z"/>
	<path id="line532" fill="#FF1D1D" stroke="#727271" stroke-width="2" d="M253.133,513.918c-1.45,4.847-4.491,10.139-6.529,6.509
		C247.377,516.605,251.45,513.657,253.133,513.918z"/>
	<path id="line533" fill="#FF1D1D" stroke="#727271" stroke-width="2" d="M249.295,522.782
		C245.385,526.587,247.99,519.783,249.295,522.782z"/>
	<path id="line534" fill="#FF1D1D" stroke="#727271" stroke-width="2" d="M277.316,485.106c-1.251,1.351,0.139,6.9-3.203,4.286
		c-0.866-1.621-3.758,4.187,0.925,1.412c0.498,4.732-12.634,9.078-7.979,2.697c-5.584,3.838-12.089,6.123-19.461,6.104
		c-2.133,5.548-9.505-5.793-2.845-5.238c1.985,2.827,3.304,2.337,3.672,0.395c2.994,2.194,14.549-4.72,9.056-3.636
		c-3.011,2.135-11.609,2.587-5.812-2.104c0.173-4.971,9.502-4.141,7.702-8.232c-5.522,4.432-7.032-1.451-11.995-2.782
		c-6.387,1.229-2.529-3.718-2.07-4.749c-3.971-2.046,3.325-3.816,4.375-1.792c-2.41-6.405,8.561-5.434,9.551,0.822
		c1.876,4.221,4.116,7.222,8.559,6.813C270.488,479.118,275.011,483.283,277.316,485.106z"/>
	<path id="line535" fill="#FF1D1D" stroke="#727271" stroke-width="2" d="M288.069,475.945c-0.954,3.014-10.702,10.953-7.081,6.11
		C281.594,480.599,288.254,473.951,288.069,475.945z"/>
	<path id="line536" fill="#FF1D1D" stroke="#727271" stroke-width="2" d="M242.338,498.592
		C243.427,503.659,243.743,498.912,242.338,498.592z"/>
	<path id="line537" fill="#FF1D1D" stroke="#727271" stroke-width="2" d="M240.959,495.034
		C236.423,502.643,237.673,491.55,240.959,495.034z"/>
	<path id="line538" fill="#FF1D1D" stroke="#727271" stroke-width="2" d="M252.608,483.643c-4.942,2.132-6.737-5.17-0.98-1.29
		C251.998,482.703,253.374,482.906,252.608,483.643z"/>
	<path id="line539" fill="#FF1D1D" stroke="#727271" stroke-width="2" d="M246.824,481.335
		C242.726,483.739,245.982,478.78,246.824,481.335z"/>
	<path id="line540" fill="#FF1D1D" stroke="#727271" stroke-width="2" d="M236.279,484.313
		C234.215,486.905,236.463,481.768,236.279,484.313z"/>
	<path id="line541" fill="#FF1D1D" stroke="#727271" stroke-width="2" d="M239.122,481.236
		C238.273,485.15,237.662,479.474,239.122,481.236z"/>
	<path id="line542" fill="#FF1D1D" stroke="#727271" stroke-width="2" d="M224.188,477.138c-1.799,2.061-4.379,0.996-4.957,4.222
		c-5.138-1.551-2.997,5.988-7.771,3.151c-2.371-3.933,1.943-7.184,6.392-7.05C220.537,477.619,222.954,474.127,224.188,477.138z"/>
	<path id="line543" fill="#FF1D1D" stroke="#727271" stroke-width="2" d="M237.548,464.24c-1.237,6.379-7.503,9.33-11.829,9.666
		c-1.439,0.445,3.285-5.449,5.977-7.022C232.461,465.35,238.067,462.026,237.548,464.24z"/>
	<path id="line544" fill="#FF1D1D" stroke="#727271" stroke-width="2" d="M268.827,454.396
		C263.56,455.248,268.044,450.774,268.827,454.396z"/>
	<path id="line545" fill="#FF1D1D" stroke="#727271" stroke-width="2" d="M249.282,450.165
		C245.632,452.914,246.515,447.149,249.282,450.165z"/>
	<path id="line546" fill="#FF1D1D" stroke="#727271" stroke-width="2" d="M255.064,441.988c1.889,6.644-8.45,4.189-4.002,0.452
		C252.947,442.905,252.356,436.456,255.064,441.988z"/>
	<path id="line547" fill="#FF1D1D" stroke="#727271" stroke-width="2" d="M248.04,435.453c-0.04,7.319-7.422,4.86-9.125,0.076
		c-4.367-1.082,5.573-8.775,7.454-4.003C249.155,432.28,247.625,434.295,248.04,435.453z"/>
	<path id="line548" fill="#FF1D1D" stroke="#727271" stroke-width="2" d="M235.906,429.812c-3.657,2.273-8.877,0.819-2.47-0.782
		C234.116,428.641,236.11,428.624,235.906,429.812z"/>
	<path id="line549" fill="#FF1D1D" stroke="#727271" stroke-width="2" d="M237.01,431.375
		C234.001,432.156,235.315,429.255,237.01,431.375z"/>
	<path id="line550" fill="#FF1D1D" stroke="#727271" stroke-width="2" d="M253.174,382.784c1.109,5.126-0.444,14.83-1.395,15.834
		c3.456,0.271,1.088,5.004,3.562,7.039c3.309,0.683,1.826,4.496,2.471,4.49c4.584-0.677,9.853,5.905,14.383,0.279
		c1.986,0.165,4.319,0.093,5.314,2.053c1.657,5.979-7.171,5.805-6.792,9.158c-0.998,3.534-5.378,6.675-7.425,9.889
		c-4.321,4.359-6.016-0.679-3.423-4.31c-2.055-5.422,8.931-7.255,7.73-8.738c-3.767,2.43-7.191,0.178-8.627-2.707
		c0.841,3.771-4.786,11.504-3.866,3.415c-1.748-3.272-8.972,3.109-10.449,0.531c5.452-2.951-7.863-1.564-2.416-5.338
		c-1.393,0.019-5.657-3.971-6.073-6.31c1.251-6.929,7.266,0.849,7.454-0.482c-2.98-3.032-2.766-5.795-6.171-4.468
		c-0.68-2.496-1.796-5.193-3.341-2.338c-0.44-6.145-2.435,1.338-2.539,4.065c-4.341-2.056-8.336-3.382-9.456-8.16
		c-3.927-1.932,1.141-3.027,1.408-3.158c-3.264-5.421,3.323-4.415,3.975,0.153c4.415,3.931,3.654,0.7,1.588-3.135
		c1.868-1.85,4.138-0.686,0.497-4.465c-3.337-3.774,0.856-9.248,1.918-2.146c1.796,3.435,7.479,4.886,6.984,5.31
		c-0.426,6.323,1.736-6.253,3.244,0.383c6.687,5.009-5.363-5.113,0.165-7.737c-4.429-2.625-1.46-6.562,1.036-9.678
		c-1.337-3.323,6.625,1.864,6.377,5.124C251.872,377.648,252.429,381.062,253.174,382.784z"/>
	<path id="line551" fill="#FF1D1D" stroke="#727271" stroke-width="2" d="M269.2,403.829
		C270.682,406.77,266.445,402.051,269.2,403.829z"/>
	<path id="line552" fill="#FF1D1D" stroke="#727271" stroke-width="2" d="M268.565,409.944
		C267.433,412.348,266.75,408.629,268.565,409.944z"/>
	<path id="line553" fill="#FF1D1D" stroke="#727271" stroke-width="2" d="M264.521,407.687
		C260.624,416.39,255.745,399.408,264.521,407.687z"/>
	<path id="line554" fill="#FF1D1D" stroke="#727271" stroke-width="2" d="M262.657,382.554
		C261.403,395.545,257.95,382.611,262.657,382.554z"/>
	<path id="line555" fill="#FF1D1D" stroke="#727271" stroke-width="2" d="M261.332,390.468c-3.098,4.395-1.529,9.182-0.911,13.234
		c-5.43,5.012-4.597-7.798-2.236-10.15C260.627,394.712,259.92,387.58,261.332,390.468z"/>
	<path id="line556" fill="#FF1D1D" stroke="#727271" stroke-width="2" d="M242.228,352.669
		C244.704,357.957,238.798,351.174,242.228,352.669z"/>
	<path id="line557" fill="#FF1D1D" stroke="#727271" stroke-width="2" d="M239.039,367.388
		C240.474,369.689,236.142,366.483,239.039,367.388z"/>
	<path id="line558" fill="#FF1D1D" stroke="#727271" stroke-width="2" d="M279.413,358.39
		C281.651,362.508,276.035,356.227,279.413,358.39z"/>
	<path id="line559" fill="#FF1D1D" stroke="#727271" stroke-width="2" d="M287.033,353.081
		C288.997,357.017,284.863,351.869,287.033,353.081z"/>
	<path id="line560" fill="#FF1D1D" stroke="#727271" stroke-width="2" d="M299.056,348.772
		C297.563,346.986,301.107,348.108,299.056,348.772z"/>
	<path id="line561" fill="#FF1D1D" stroke="#727271" stroke-width="2" d="M290.221,342.725
		C286.045,342.947,290.59,338.499,290.221,342.725z"/>
	<path id="line562" fill="#FF1D1D" stroke="#727271" stroke-width="2" d="M288.855,345.776
		C286.113,345.226,290.064,344.52,288.855,345.776z"/>
	<path id="line563" fill="#FF1D1D" stroke="#727271" stroke-width="2" d="M285.335,347.507
		C281.87,347.334,286.234,345.074,285.335,347.507z"/>
	<path id="line564" fill="#FF1D1D" stroke="#727271" stroke-width="2" d="M302.08,308.196
		C298.666,309.694,303.255,305.022,302.08,308.196z"/>
	<path id="line565" fill="#FF1D1D" stroke="#727271" stroke-width="2" d="M252.36,305.085c-4.203,2.627,0.544,6.858-0.662,7.499
		c-3.468,3.103-8.079,7.995-8.158,10.711c4.586,4.316,11.06-9.247,10.215-0.339c-2.016,4.13-5.703,3.737-8.986,2.549
		c-1.973,0.514-4.741-2.478-2.72,2.132c3.505,4.921-6.238,6.247-7.674,7.812c5.485-0.207,7.582-3.757,7.977,2.902
		c1.513,7.086-8.675,2.628-8.462,4.116c6.663,1.587,1.791,8.158-0.951,7.313c-0.814,4.81-5.078-5.216-3.507,1.213
		c-4.844-0.836-5.352-8.312-4.279-10.984c-4.348,3.551-0.001,10.676,1.242,13.254c-0.753,2.357-10.396-1.775-5.08,3.273
		c2.678,2.639-1.247,4.007-1.973,4.299c-3.13-0.51-4.402,5.016-6.93,7.632c-2.249-1.282-8.192-6.905-9.152-10.103
		c3.855,0.638,2.715,5.002,5.122,0.181c1.144-1.77,5.58-3.215,5.383-3.813c-4.65-3.294,3.267-1.964,5.19-2.321
		c-1.515-3.297-6.792-4.894-10.808-4.93c-4.021-2.523-4.355-5.444-0.275-6.36c4.372-1.903-1.786-1.369-0.07-2.848
		c-2.5-2.151-4.584-6.799-1.959-10.246c-0.062-2.351,7.036-0.271,2.043-3.431c0.099-5.515,4.773-0.778,5.659-2.16
		c3.507,2.58-2.482,3.306,3.326,5.071c0.782-4.906,8.367,1.945,8.311-1.273c-3.716-2.963-8.018-10.545-1.506-12.057
		c2.309-3.695,7.776-2.785,10.202-4.569c2.317-6.518,11.666-9.036,13.816-13.98C251.383,298.3,251.656,301.095,252.36,305.085z"/>
	<path id="line566" fill="#FF1D1D" stroke="#727271" stroke-width="2" d="M221.606,323.425c-0.385,5.182-8.602-7.539-2.511-2.004
		C219.526,322.168,220.735,322.364,221.606,323.425z"/>
	<path id="line567" fill="#FF1D1D" stroke="#727271" stroke-width="2" d="M218.252,324.543
		C215.964,323.635,218.585,322.758,218.252,324.543z"/>
	<path id="line568" fill="#FF1D1D" stroke="#727271" stroke-width="2" d="M204.572,342.441
		C196.969,343.463,205.255,336.001,204.572,342.441z"/>
	<path id="line569" fill="#FF1D1D" stroke="#727271" stroke-width="2" d="M211.433,352.953c-2.902,2.557-6.822,1.369-1.795-1.47
		C210.988,349.856,211.44,351.744,211.433,352.953z"/>
	<path id="line570" fill="#FF1D1D" stroke="#727271" stroke-width="2" d="M199.673,364.1
		C199.763,368.944,193.322,362.689,199.673,364.1z"/>
	<path id="line571" fill="#FF1D1D" stroke="#727271" stroke-width="2" d="M202.696,368.621
		C198.753,375.33,197.554,365.666,202.696,368.621z"/>
	<path id="line572" fill="#FF1D1D" stroke="#727271" stroke-width="2" d="M196.167,370.34
		C195.93,374.064,193.851,368.521,196.167,370.34z"/>
	<path id="line573" fill="#FF1D1D" stroke="#727271" stroke-width="2" d="M176.884,371.545
		C176.498,373.219,175.364,370.379,176.884,371.545z"/>
	<path id="line574" fill="#FF1D1D" stroke="#727271" stroke-width="2" d="M133.61,360.294
		C130.834,364.438,128.033,356.434,133.61,360.294z"/>
	<path id="line575" fill="#FF1D1D" stroke="#727271" stroke-width="2" d="M206.781,377.694c-0.352,4.102-8.237-3.085-5.203,1.382
		c-0.056,3.598,5.581,0.336,2.097,5.088c-4.82,0.843-8.825-1.856-7.84,2.247c-0.06,6.765-5.434-8.005-9.386-2.937
		c-5.54-2.152-1.287-5.739,0-8.366c2.911,0.443,5.032-1.319,3.091,1.895c1.958,1.208,5.249-8.419,4.252-1.946
		c2.942,6.672,3.606-6.527,7.882-1C197.77,378.722,207.779,373.857,206.781,377.694z"/>
	<path id="line576" fill="#FF1D1D" stroke="#727271" stroke-width="2" d="M189.099,383.883
		C191.224,387.31,186.67,383.263,189.099,383.883z"/>
	<path id="line577" fill="#FF1D1D" stroke="#727271" stroke-width="2" d="M178.43,387.994
		C173.809,388.104,180.84,386.626,178.43,387.994z"/>
	<path id="line578" fill="#FF1D1D" stroke="#727271" stroke-width="2" d="M180.639,387.228
		C180.235,390.486,178.499,386.662,180.639,387.228z"/>
	<path id="line579" fill="#FF1D1D" stroke="#727271" stroke-width="2" d="M192.909,387.203
		C192.902,396.113,187.414,380.869,192.909,387.203z"/>
	<path id="line580" fill="#FF1D1D" stroke="#727271" stroke-width="2" d="M199.286,395.386c-1.038,8.701-16.316-3.256-6.087-4.765
		C195.423,392.632,198.167,392.521,199.286,395.386z"/>
	<path id="line581" fill="#FF1D1D" stroke="#727271" stroke-width="2" d="M197.712,404.286c-3.431,0.092-11.146-5.982-4.514-4.905
		C196.689,400.84,195.971,401.951,197.712,404.286z"/>
	<path id="line582" fill="#FF1D1D" stroke="#727271" stroke-width="2" d="M199.976,408.372c-2.152,2.947-3.47,7.784-7.37,5.702
		c1.407,0.056,7.936,6.273,2.941,7.285c-6.464,0.274,2.47,0.924,3.118,3.283c0.021,2.639-8.902,1.894-9.178-2.298
		c-1.781-7.034-0.899-11.337,0.648-18.286c-1.936-6.04,0.022-1.789,3.052-0.356C196.138,404.932,199.159,406.979,199.976,408.372z"
		/>
	<path id="line583" fill="#FF1D1D" stroke="#727271" stroke-width="2" d="M196.636,427.695
		C194.879,434.726,192.555,424.421,196.636,427.695z"/>
	<path id="line584" fill="#FF1D1D" stroke="#727271" stroke-width="2" d="M191.267,430.997
		C188.149,432.067,190.879,428.3,191.267,430.997z"/>
	<path id="line585" fill="#FF1D1D" stroke="#727271" stroke-width="2" d="M188.783,431.375c-0.464,3.565,2.441,4.879-0.028,7.826
		c-2.977,2.086-9.056-0.091-4.169-3.445c-1.371-1.489,3.867-4.404,3.188-5.136C188.095,430.898,188.576,430.957,188.783,431.375z"/>
	<path id="line586" fill="#FF1D1D" stroke="#727271" stroke-width="2" d="M185.524,441.235c-0.386,2.57-5.347,1.433-2.65-1.156
		C183.199,440.798,186.929,440.622,185.524,441.235z"/>
	<path id="line587" fill="#FF1D1D" stroke="#727271" stroke-width="2" d="M185.263,445.477
		C180.628,446.937,185.556,442.259,185.263,445.477z"/>
	<path id="line588" fill="#FF1D1D" stroke="#727271" stroke-width="2" d="M182.142,449.063
		C177.168,449.593,182.597,446.868,182.142,449.063z"/>
	<path id="line589" fill="#FF1D1D" stroke="#727271" stroke-width="2" d="M179.12,451.342
		C177.478,458.927,175.122,450.133,179.12,451.342z"/>
	<path id="line590" fill="#FF1D1D" stroke="#727271" stroke-width="2" d="M193.296,433.842
		C195.207,436.118,190.35,433.177,193.296,433.842z"/>
	<path id="line591" fill="#FF1D1D" stroke="#727271" stroke-width="2" d="M200.501,399.483
		C197.102,402.452,200.456,394.399,200.501,399.483z"/>
	<path id="line592" fill="#FF1D1D" stroke="#727271" stroke-width="2" d="M199.603,391.029
		C199.363,394.263,194.983,387.985,199.603,391.029z"/>
	<path id="line593" fill="#FF1D1D" stroke="#727271" stroke-width="2" d="M201.77,390.239
		C201.512,396.051,198.567,387.728,201.77,390.239z"/>
	<path id="line594" fill="#FF1D1D" stroke="#727271" stroke-width="2" d="M199.852,385.722
		C199.591,393.165,193.734,385.182,199.852,385.722z"/>
	<path id="line595" fill="#FF1D1D" stroke="#727271" stroke-width="2" d="M203.261,385.467
		C203.514,392.473,196.067,386.457,203.261,385.467z"/>
	<path id="line597" fill="#FF1D1D" stroke="#727271" stroke-width="2" d="M519.093,67.657c-2.076-2.014-4.939,9.845-4.044,3.654
		c2.386-3.805-0.6-5.115-1.795-1.012c-1.525,2.59-0.905,9.002-2.36,10.074c-1.528,5.237,5.075,2.893,6.667,3.025
		c-2.131-3.211,1.655-6.82,0.926-8.801c1.075-2.378,2.551-3.336,1.697-6.321C519.886,68.158,518.93,68.228,519.093,67.657z"/>
	<path id="line598" fill="#FF1D1D" stroke="#727271" stroke-width="2" d="M510.148,89.661c2.24,1.483-4.23,2.97-0.109,0.084
		L510.148,89.661z"/>
	<path id="line599" fill="#FF1D1D" stroke="#727271" stroke-width="2" d="M520.681,92.873c0.413-2.521-2.684-3.601-5.233-3.184
		c-7.101-4.329,1.296,10.929,0.414,3.184C518.36,92.255,519.607,97.339,520.681,92.873z"/>
	<path id="line600" fill="#FF1D1D" stroke="#727271" stroke-width="2" d="M521.771,109.602
		C519.831,107.151,518.769,113.757,521.771,109.602z"/>
	<path id="line601" fill="#FF1D1D" stroke="#727271" stroke-width="2" d="M513.434,114.347c1.757-4.911-10.208,6.166-2.83,3.851
		C511.91,117.156,512.177,115.442,513.434,114.347z"/>
	<path id="line602" fill="#FF1D1D" stroke="#727271" stroke-width="2" d="M508.589,137.333
		C508.942,133.787,506.324,139.657,508.589,137.333z"/>
	<path id="line603" fill="#FF1D1D" stroke="#727271" stroke-width="2" d="M506.85,138.131c1.983-5.098-5.961-6.659-3.34-0.854
		C502.636,140.538,507.358,143.245,506.85,138.131z"/>
	<path id="line604" fill="#FF1D1D" stroke="#727271" stroke-width="2" d="M499.423,105.018c-0.319-6.529-3.832,3.07-4.155-1.335
		c-2.137,2.907,4.943,4.398-1.725,4.725c-2.192,6.094-3.357,1.083-0.387-2c1.655-3.956-0.428-2.633-0.578-4.06
		c-0.155-4.278,0.578-3.596,1.118-8.276c2.047-2.482-0.755-9.122-0.676-2.93c-0.151,1.284-6.768-2.209-5.093,3.237
		c-5.77,2.431,0.991,6.03,1.159,6.995c-5.068,1.452-6.614-10.34-7.606-1.198c-4.314,1.139-2.305,5.932,0.76,3.284
		c3.792-1.948,1.106,5.549,4.044,0.584c0.985-1.245,0.337,7.284,3.285,6.418c-1.754,4.986,3.28,1.111,2.733,4.438
		c5.86,1.663,1.706,0.496,0.553,2.383c-2.111-0.141-0.64,4.461-2.003,5.646c-2.16-6.577-5.179-0.929-5.189,0.58
		c-0.588-8.227-4.415,2.871-6.419-2.71c-9.144-0.361-2.244,13.347,2.596,8.621c1.192,4.166,2.711-5.815,3.312,0.524
		c-2.353,1.17-2.754,4.254,1.449,6.45c1.03-3.985,2.47-2.095,3.409-5.347c4.81,2.354-5.518-8.477,1.477-3.809
		c0.924,6.745,1.285,1.255,3.975,0.166c-1.287,2.592-3.635,10.565-0.166,5.38c-0.357,5.548,0.952,10.196-1.407,16.445
		c-2.501,4.463-0.982,6.377-3.162,10.735c-1.16,2.827,4.3,2.801,3.383,4.508c3.521,3.325,0.04-6.074,2.498-8.119
		c-0.327-5.227,0.647-3.113,2.54-4.081c-3.403-4.711,3.936-4.351-0.193-8.534c-0.607-4.352,1.501-5.133,3.672-7.399
		c-2.452-2.253,0.281-5.925-3.437-2.562c3.434-5.723-1.139-1.579,0.565-4.357c-2.559-0.944-0.039-2.426-0.151-4.805
		c-0.332,4.776,6.612,1.189,3.339-0.774c-3.356,0.082,6.078-5.535-0.883-5.257c-5.041-2.313,6.999-0.401,3.409-5.986
		c-5.836,3.518,0.452-2.012,1.573-5.386c-3.451,0.815-4.177,4.502-5.659,5.469c-0.353-3.392-3.637-0.868-3.244-2.22
		C501.393,109.014,502.264,108.616,499.423,105.018z"/>
	<path id="line605" fill="#FF1D1D" stroke="#727271" stroke-width="2" d="M458.207,138.186
		C455.248,129.199,452.423,144.248,458.207,138.186z"/>
	<path id="line606" fill="#FF1D1D" stroke="#727271" stroke-width="2" d="M481.23,131.436
		C476.494,130.23,482.762,134.536,481.23,131.436z"/>
	<path id="line607" fill="#FF1D1D" stroke="#727271" stroke-width="2" d="M474.219,117.257c-3.123,2.903,6.594,1.773,0.317,0.111
		L474.219,117.257z"/>
	<path id="line608" fill="#FF1D1D" stroke="#727271" stroke-width="2" d="M490.838,118.364
		C488.891,115.139,489.901,122.452,490.838,118.364z"/>
	<path id="line609" fill="#FF1D1D" stroke="#727271" stroke-width="2" d="M490.189,114.513
		C482.673,110.079,488.256,122.167,490.189,114.513z"/>
	<path id="line610" fill="#FF1D1D" stroke="#727271" stroke-width="2" d="M509.057,79.028c-4.016-0.463-6.755-1.281-5.727,4.537
		c-0.963,3.583,0.704,10.989-1.395,3.944c-3.764,0.376-2.001,12.028,0.621,15.478c2.237-1.88,0.463-2.259,5.065-1.252
		c-0.725-5.058,2.339-7.695-2.043-10.984c5.5,1.987-2.681-9.678,2.927-2.878C510.9,87.411,508.326,81.03,509.057,79.028z"/>
	<path id="line2130" fill="#FF1D1D" stroke="#727271" stroke-width="2" d="M198.458,381.097c-3.817,3.095-1.679-0.333-2.029-1.791
		C196.719,380.562,198.753,379.74,198.458,381.097z"/>
	<path id="path26824" fill="#FF1D1D" stroke="#727271" stroke-width="2" d="M352.783,315.397c0.717-0.014,1.94,0.593,3.214,2.452
		l-0.512-0.046C351.792,317.185,351.588,315.422,352.783,315.397z"/>
	<path id="path26822" fill="#FF1D1D" stroke="#727271" stroke-width="2" d="M344.444,321.349
		C338.604,328.588,341.282,322.396,344.444,321.349z"/>
	<path id="path26820" fill="#FF1D1D" stroke="#727271" stroke-width="2" d="M324.723,327.686
		c5.892,3.306,11.817,7.418,15.404,13.184c-0.685,0.321-1.098-0.692-1.475-1.064C335.293,335.66,324.559,328.002,324.723,327.686z"
		/>
	<path id="path26818" fill="#FF1D1D" stroke="#727271" stroke-width="2" d="M354.212,347.808c0.839-0.141,8.364,3.271,3.245,2.283
		C354.58,348.462,353.883,347.865,354.212,347.808z"/>
	<path id="path26816" fill="#FF1D1D" stroke="#727271" stroke-width="2" d="M340.64,351.818c0.235,0.004,0.877,0.627,2.05,2.251
		c0.484,3.7,10.05,0.615,5.218,2.699C344.141,359.551,339.801,351.801,340.64,351.818z"/>
	<path id="path26814" fill="#FF1D1D" stroke="#727271" stroke-width="2" d="M286.786,363.397c0.348-0.112,0.979,0.621,1.646,2.837
		c0.375,0.599,3.186,2.885,0.947,2.513C286.457,366.894,286.122,363.612,286.786,363.397z"/>
	<path id="path26812" fill="#FF1D1D" stroke="#727271" stroke-width="2" d="M279.985,365.787c0.075-0.013,2.321,2.499,4.441,3.994
		c1.493,1.142,12.139,7.851,7.547,6.322c-3.375-3.914-9.867-1.692-9.985-7.71C280.509,366.494,279.946,365.794,279.985,365.787z"/>
	<path id="path26810" fill="#FF1D1D" stroke="#727271" stroke-width="2" d="M308.076,375.44c0.572,0.018,1.424,0.096,2.624,0.278
		c0.949,0.748,5.554-1.302,4.208,0.525c-3.141,1.499-9.585-0.627-7.314-0.786C307.726,375.446,307.885,375.438,308.076,375.44z"/>
	<path id="path26808" fill="#FF1D1D" stroke="#727271" stroke-width="2" d="M379.694,375.548c0.678-0.021,1.127,0.513,0.559,2.128
		C375.597,378.273,378.202,375.594,379.694,375.548z"/>
	<path id="path26806" fill="#FF1D1D" stroke="#727271" stroke-width="2" d="M341.525,388.993c1.076,1.068,7.223-0.184,5.326,1.48
		C342.976,392.627,332.725,389.611,341.525,388.993z"/>
	<path id="path26804" fill="#FF1D1D" stroke="#727271" stroke-width="2" d="M306.881,395.315c1.659-0.175,4.855,2.591,2.997,2.359
		c-2.657-1.954-10.764-0.284-3.587-2.082C306.446,395.43,306.644,395.34,306.881,395.315z"/>
	<path id="path26802" fill="#FF1D1D" stroke="#727271" stroke-width="2" d="M342.767,399.509c0.743-0.02,0.316,1.007,0.373,1.372
		c-6.024,6.459-10.449,16.94-17.252,20.908C331.951,414.526,337.038,406.687,342.767,399.509z"/>
	<path id="path26800" fill="#FF1D1D" stroke="#727271" stroke-width="2" d="M315.592,427.326c0.572,0.012,1.209,0.081,1.879,0.216
		c0.159,0.576-0.546,0.527-0.823,0.786C310.313,429.717,311.585,427.241,315.592,427.326z"/>
	<path id="path26798" fill="#FF1D1D" stroke="#727271" stroke-width="2" d="M296.476,427.526c1.472-0.094,2.82,0.512,4.022,1.712
		c-2.389-0.804-9.39,2.264-8.743,0.755C293.417,428.412,295.004,427.62,296.476,427.526z"/>
	<path id="path26796" fill="#FF1D1D" stroke="#727271" stroke-width="2" d="M317.875,433.755c0.211,0.004,0.236,0.298-0.031,1.017
		c-1.351,3.513-9.805,9.889-4.27,3.346C314.007,437.388,317.12,433.741,317.875,433.755z"/>
	<path id="path26794" fill="#FF1D1D" stroke="#727271" stroke-width="2" d="M271.242,438.227c3.128,1.676,11.48,0.015,12.112,1.249
		l-0.264,0.154l-0.373,0.077C279.345,440.382,267.66,440.969,271.242,438.227z"/>
	<path id="path26792" fill="#FF1D1D" stroke="#727271" stroke-width="2" d="M346.339,442.143c0.365,0.008-0.102,0.836-0.497,0.848
		c-3.785,4.367-7.043,12.374-8.82,15.651c0.482-5.548,5.399-11.681,8.929-16.345C346.136,442.201,346.254,442.141,346.339,442.143z"
		/>
	<path id="path26790" fill="#FF1D1D" stroke="#727271" stroke-width="2" d="M434.215,460.77c1.33,0.011,4.256,1.394,1.009,1.943
		C433.192,461.25,433.417,460.763,434.215,460.77z"/>
	<path id="path26788" fill="#FF1D1D" stroke="#727271" stroke-width="2" d="M325.732,460.908c0.774-0.043,1.192,0.134,0.668,0.74
		c-4.187,1.981-14.883-0.052-4.83,0.139C322.164,461.644,324.443,460.981,325.732,460.908z"/>
	<path id="path26786" fill="#FF1D1D" stroke="#727271" stroke-width="2" d="M348.932,462.219c0.866-0.016,1.388,0.231,1.009,1.017
		c-4.434,0.816-15.796,0.945-5.59-0.216C345.095,462.95,347.489,462.229,348.932,462.219z"/>
	<path id="path26784" fill="#FF1D1D" stroke="#727271" stroke-width="2" d="M359.724,473.105c-0.187,0.316-0.546,0.479-0.776,0.755
		c-4.937,2.439-7.407,9.14-13.308,8.943C351.542,481.515,354.524,473.372,359.724,473.105z"/>
	<path id="path26782" fill="#FF1D1D" stroke="#727271" stroke-width="2" d="M318.962,474.354c0.524-0.004,1.193,0.169,2.05,0.617
		C317.868,479.601,316.135,474.378,318.962,474.354z"/>
	<path id="path26780" fill="#FF1D1D" stroke="#727271" stroke-width="2" d="M306.493,475.449c0.103,0.016,0.184,0.115,0.217,0.339
		c-1.367,3.513-6.404,10.824-8.618,9.143C301.388,483.997,305.488,475.293,306.493,475.449z"/>
	<path id="path26778" fill="#FF1D1D" stroke="#727271" stroke-width="2" d="M354.476,489.681c1.208-0.027,1.729,0.13-0.528,0.647
		c-3.995,1.652-11.077,0.022-3.075-0.17C351.376,489.935,353.268,489.708,354.476,489.681z"/>
	<path id="path26776" fill="#FF1D1D" stroke="#727271" stroke-width="2" d="M307.175,490.035c0.379-0.02,0.667,0.166,0.684,0.74
		c-2.656,4.122-8.963,5.118-10.265,10.161c-0.595,2.864-6.877,8.779-7.469,7.078c7.285-3.849,6.674-13.56,15.218-15.774
		C305.074,491.318,306.343,490.108,307.175,490.035z"/>
	<path id="path26774" fill="#FF1D1D" stroke="#727271" stroke-width="2" d="M329.506,498.871c2.139,3.198,7.889,2.133,8.634,4.903
		c-0.258-0.017-0.449-0.415-0.73-0.277C334.501,503.863,328.247,500.273,329.506,498.871z"/>
	<path id="path26772" fill="#FF1D1D" stroke="#727271" stroke-width="2" d="M325.437,500.752c0.108-0.059,0.292,0.119,0.575,0.648
		c-1.024,7.494,4.867,13.231,8.09,17.362c-2.664,0.383-3.345,4.667-3.975,4.456c-2.72-4.291-1.591-11.536-4.659-16.714
		C325.853,505.768,324.972,501.007,325.437,500.752z"/>
	<path id="path2661" fill="#FF1D1D" stroke="#727271" stroke-width="2" d="M312.955,548.359
		C311.522,553.59,310.962,545.507,312.955,548.359z"/>
	<path id="path2663" fill="#FF1D1D" stroke="#727271" stroke-width="2" d="M301.955,531.598c3.954,3.845,8.794,8.618,6.957,14.18
		c1.429,6.211-1.943-1.235-4.845-2.193C305.51,538.811,296.232,535.134,301.955,531.598z"/>
	<path id="path2665" fill="#FF1D1D" stroke="#727271" stroke-width="2" d="M302.271,541.781
		C304.938,547.179,299.614,541.38,302.271,541.781z"/>
	<path id="path2667" fill="#FF1D1D" stroke="#727271" stroke-width="2" d="M306.98,565.571
		C309.746,569.98,304.552,565.3,306.98,565.571z"/>
	<path id="path2669" fill="#FF1D1D" stroke="#727271" stroke-width="2" d="M296.93,549.113c6.907,0.726,5.747,9.179,7.537,12.266
		c2.291,2.93-1.266,4.736,1.449,6.782c1.265,3.969-1.448,6.705-6.253,5.923c-8.784-1.573-6.136-10.04-9.426-16.271
		C290.286,553.045,294.253,549.922,296.93,549.113z"/>
	<path id="path2671" fill="#FF1D1D" stroke="#727271" stroke-width="2" d="M282.175,587.465
		C278.557,590.434,280.316,585.254,282.175,587.465z"/>
	<path id="line521" fill="#FF1D1D" stroke="#727271" stroke-width="2" d="M273.935,548.334c1.549,2.674-2.596,10.262-2.224,3.941
		C273.129,550.914,272.277,548.231,273.935,548.334z"/>
	<path id="path2674" fill="#FF1D1D" stroke="#727271" stroke-width="2" d="M253.615,531.5c-1.236,7.679,5.186,14.121,5.315,21.212
		c-2.413,2.654-5.594,5.143-9.772,4.615c-0.668,8.241-10.444,0.946-3.121-2.161c2.701-3.618-7.194-7.627,0.648-9.608
		c-0.642-3.819-6.624,0.524-6.445,4.479c-3.953,6.353-9.002,1.87-4.017-2.896c2.338-2.625-0.563-4.524,0.94-7.873
		c0.106-2.239,6.463-4.64,6.197-3.516c-0.986,6.016,0.644,3.684,1.808-0.196C246.936,534.333,253.938,527.311,253.615,531.5z"/>
	<path id="line523" fill="#FF1D1D" stroke="#727271" stroke-width="2" d="M267.668,527.927c0.164,7.3-5.039,6.944-5.578,14.122
		c-9.916,3.364-8.684-17.287,2.803-13.608C265.627,528.378,267.455,526.941,267.668,527.927z"/>
	<path id="path2749" fill="#FF1D1D" stroke="#727271" stroke-width="2" d="M314.999,542.976c1.472,6.142-5.691,2.891-0.346-0.585
		l0.222,0.171L314.999,542.976z"/>
	<path id="path26770" fill="#FF1D1D" stroke="#727271" stroke-width="2" d="M340.982,586.822c0.428-0.019,1.322,0.593,1.289,1.172
		c-1.238,5.599-1.857,4.445-1.258-0.308C340.631,587.077,340.725,586.833,340.982,586.822z"/>
</g>
<g id="layer3">
	<path id="path2494" fill="#FF1D1D" stroke="#727271" stroke-width="2" d="M238.12,590.615c-1.678,0.027-3.22,0.385-4.41,1.203
		c-5.595,1.933-10.246,5.538-16.786,5.165c-5.818-4.547-3.88,1.639-6.289,5.659c-0.72,6.906-6.738,4.508-11.507,4.502
		c-0.179-0.245-0.313-0.493-0.404-0.755l-0.621,0.509c-0.482-0.095-0.977,0.216-1.335,0.509c-0.831,0.911-1.511-0.565-2.407,0.354
		c-1.742-0.632-2.29,1.358-3.106,2.421c-0.231,0.873-1.55,1.557-1.258,2.421c1.798,0.444-0.564,1.331,0.404,2.128
		c-0.13,1.098-0.977,1.586-1.646,2.251c0.059,1.236-0.585,2.51-0.062,3.701c-0.117,1.316-0.436,2.932-1.615,3.778
		c0.02,1.247-0.758,2.106-1.832,2.606c-0.65,1.097-0.67,2.869-1.087,4.225c-0.519,0.935,0.418,2.977-1.304,2.76
		c-1.007-0.656-2.141-0.31-3.23-0.339c-1.419-0.88-2.101,0.959-3.183,1.48c-1.49,0.303-2.475,2.57-4.115,1.465
		c-1.379-0.725-2.176-2.62-3.882-2.776c-1.586,0.083-1.401,2.222-2.003,3.176c-1.106,0.559-0.878,1.71-1.631,2.436
		c1.089,1.016,2.617,1.711,3.013,3.284c1.267-0.178,2.648-0.225,3.836,0.401c1.181,0.037,1.945,2.007,3.028,0.817
		c0.724-1.27,1.554,0.886,0.699,1.264c-1.882,1.352-4.34,2.049-5.373,4.317c-0.147,1.096-2.005,0.814-1.879,1.773
		c-1.667,0.25-3.365-0.06-5.047,0.139c-0.823-0.339-1.243-1.494-2.096-0.277c-0.865,0.756-2.282,1.43-2.407,2.621
		c0.407,1.279-0.721,2.083-1.848,1.881c-0.723,1.279-2.172,1.62-3.556,1.819c-0.514,0.55,1.754,1.484,0.311,2.035
		c0.824,0.79,1.763,1.596,2.407,2.59c1.321,1.511,2.308,3.679,4.41,4.225c1.496,0.009,1.591,1.472,2.003,2.544
		c1.003,1.425,2.13,3.131,4.022,3.408c1.656,1.583,0.788,4.264,1.771,6.199c2.531,0.829,5.417,0.599,8.059,1.172
		c0.651,0.62,0.706,2.311,1.863,1.187c1.483,0.653,0.817,2.56,1.972,3.392c1.455-0.353,1.519,1.655,2.857,1.48
		c1.088-0.494,1.955,0.172,2.904,0.602c1.381-0.229,1.849-1.747,2.903-2.513c0.405-0.737,1.815-1.805,2.19-0.524
		c0.219,1.019-1.935,1.454-0.326,1.943c0.899,0.514,2.438-0.964,2.531,0.663c0.735,0.558,1.309,1.653,2.298,0.694
		c1.447,0.168,2.296-1.278,2.5-2.529c1.072-0.783,0.042-1.91,0.187-2.868c1.086-0.375,1.48-1.382,1.584-2.451
		c0.936,0.113,1.555-0.528,2.516-0.416c1.348-0.148,0.663-1.598,0.729-2.39c0.602-1.103-0.4-1.852-1.009-2.529
		c0.744-1.492-2.329-1.118-1.382-2.374c0.806-0.593,1.52-1.207,1.553-2.251c1.353-0.239,2.406-1.156,3.199-2.22
		c0.959-1.754,2.482-3.102,3.37-4.888c1.476-0.832,2.454,1.507,3.944,1.234c0.855,0.55,1.275,1.78,2.236,2.344
		c0.925,0.521,0.249,2.368,1.506,2.19c1.279,0.756,1.364,2.597,1.817,3.901c-0.881,1.292,0.677,2.243,1.196,3.254
		c-0.075,2.078,1.06,4.089,2.888,5.119c0.743,0.215,1.452,2.083,2.05,0.91c0.553-1.735,2.161-0.034,3.183,0.216
		c1.344,0.879,1.89,2.865,1.584,4.41c-0.722,1.405-1.719,3.014-0.87,4.642c1.122,0.895,1.211,3.347,3.075,2.898
		c0.569-0.873,1.845-0.73,2.717-1.187c1.051,0.375,1.9-0.064,2.516-0.925c0.48-0.958,1.474-0.71,1.926,0.139
		c0.462,1.385,1.722-0.248,2.283,0.524c0.782-0.673,2.499-0.664,2.127-2.066c0.241-1.497,1.922,0.185,2.438-0.956
		c0.574-0.983,1.696-0.848,2.081,0.216l0.777,0.509c0.169-0.213,0.48-0.412,0.994-0.586c1.376,2.507,9.222,1.926,5.807,4.564
		c4.491,1.648,11.04-3.995,11.756-8.912c-0.353-4.823,0.768-9.275,6.801-8.681c5.017,2.958,7.042-0.548,9.814-5.119
		c1.036-5.928-3.29-7.478-7.671-3.439c-0.257-0.834,5.976-7.895,2.376-10.13c-0.512-3.171-1.484-3.929-2.826-6.229
		c0.044-6.065,7.704,1.501,7.826,4.564c0.08,4.786-2.533,8.575,1.118,12.829c2.31,0.088,3.085-4.359,2.889-6.969
		c3.143-4.173-0.242-6.409-0.559-10.732c-2.025-3.698-2.138-13.13-8.168-10.901c-5.185-0.977-10.233,1.796-13.059,6.029
		c-3.201-7.104,6.837-9.093,10.497-12.767c3.839-4.232-6.549-12.795-3.727-6.183c3.461,4.11,2.652,2.771-1.242,1.141
		c-1.248-4.646-3.656-10.01-7.469-13.723c-4.736,0.243,2.127-10.145-5.186-6.893c1.601-5.966,0.059-18.087-9.085-13.307
		C246.167,592.074,241.81,590.556,238.12,590.615z M236.893,627.899C238.444,634.563,233.354,629.627,236.893,627.899z
		 M236.039,633.835c0.623-0.021,1.121,0.668,1.103,2.467c3.651,3.266,8.601-3.6,11.382,0.478c-2.045,3.646-6.265,8.108-1.6,10.115
		c-4.632,2.372-3.421,6.285-5.466,8.48c-3.12-0.216-5.066-3.868-9.162-1.28c-6.624-4.776,6.285-8.084,1.863-14.293
		C232.681,637.331,234.669,633.881,236.039,633.835z M169.778,651.613c1.465-0.064,2.902,0.275,3.991,1.141
		c-0.017,2.381,0.278,4.829,1.956,7.54c3.403-0.044,2.908,10.037,0.854,2.622c-3.203-3.665-9.963-7.026-13.603-6.554
		C163.17,653.823,166.555,651.755,169.778,651.613z M183.087,673.632c1.656-0.029,1.491,2.692,3.509,3.701
		c0.453,3.913,4.499,7.636-0.015,5.767c1.334-2.12-5.407-6.752-5.404-8.696C182.012,673.865,182.622,673.64,183.087,673.632z"/>
</g>
<g id="layer4">
	<path id="path2657" fill="#FF1D1D" stroke="#727271" stroke-width="2" d="M342.288,661.828c-2.51,4.186-0.034,8.217,1.836,10.276
		c-3.336,4.477-2.863,8.724-7.786,11.604c-0.745,2.784-6.909,5.517-7.301,7.387c-2.562-0.681-4.86-1.561-8.172,0.467
		c1.963-3.883,2.188-10.269,4.721-13.944c7.259-3.857,5.77-15.337,15.473-16.119C341.533,660.946,342.106,661.188,342.288,661.828z"
		/>
	<path id="path2659" fill="#FF1D1D" stroke="#727271" stroke-width="2" d="M319.981,691.492
		C319.122,695.239,317.945,691.481,319.981,691.492z"/>
</g>
<g id="layer6">
	<path id="path2647" fill="#FF0000" stroke="#727271" stroke-width="2" d="M295.522,881.269
		C297.935,883.023,292.64,882.2,295.522,881.269z"/>
	<path id="path2649" fill="#FFD700" stroke="#727271" stroke-width="2" d="M294.196,870.74
		C293.991,873.983,292.395,869.56,294.196,870.74z"/>
	<path id="path2651" fill="#FF0000" stroke="#727271" stroke-width="2" d="M326.704,752.968c2.344-1.399,6.736,5.53,3.865,6.602
		C329.972,755.482,322.503,756.528,326.704,752.968z"/>
	<path id="path2653" fill="#FF0000" stroke="#727271" stroke-width="2" d="M339.292,744.376c7.762-0.754,7.797,7.483,11.417,10.932
		c4.906-3.858,9.828,0.265,3.257,3.758c-4.788,2.245-7.304,8.029-10.808,10.018c-4.047,0.301-5.157-2.901-7.937-5.508
		c-3.272-4.898-4.591-11.787-2.912-17.015C335.01,745.919,336.501,744.871,339.292,744.376z"/>
	<path id="path26826" fill="#FF0000" stroke="#727271" stroke-width="2" d="M421.855,894.22c0.409-0.878,0.699-1.819,0.699-1.819
		s1.585-11.528,0.621-16.586c-0.436-2.289-2.243-0.309-4.736-2.475c-2.493-2.166-2.557-5.523-5.234-6.188
		c-0.748-0.186-3.988,1.794-4.736,1.485c-2.713-1.123-3.116-2.97-5.234-7.672c-2.119-4.703-3.926-9.158-3.24-11.138
		c2.316-6.69,7.191-12.689,8.973-16.583c0.312-0.681-1.309-0.433-4.736,0c-3.965,0.501-8.973-8.167-8.973-8.167
		s0.748-1.794,3.49-2.97c2.742-1.176,7.007-1.078,7.478-1.733c0.739-1.028,1.558-4.95,0.499-5.445s-4.113,3.527-4.736,3.465
		c-1.613-0.16-2.866-1.98-1.745-3.713c2.328-3.595,9.124-10.789,8.225-12.128c-0.249-0.371-7.979-4.664-8.225-5.197
		c-0.611-1.325,0.997-7.92,2.493-10.89c1.496-2.97,1.869-0.309,3.49-0.99c1.62-0.681,1.807-1.794,2.991-1.732
		c1.184,0.062,0.062,1.485,1.745,1.98c1.683,0.495,3.116-0.866,4.985,0c1.869,0.866,1.122,3.217,2.493,3.465
		c1.371,0.247,2.991-2.475,2.991-2.475l-0.748-5.198l-4.487-0.742c0,0-1.869-5.383-3.739-8.662c-1.869-3.279-2.804-2.97-2.991-4.455
		c-0.187-1.485,3.427,0.062,2.493-1.98c-0.935-2.042-5.238-5.571-5.238-5.571s1.856,1.33-0.488-0.343
		c-2.343-1.673-3.427-1.495-6.351-4.302c-7.497-10.775-16.401,2.651-25.467,0.17c-2.49-1.712-11.312-6.466-6.336-0.524
		c-3.716,1.904-11.087,5.851-16.522,6.091c-2.482,2.376-6.12,9.586-8.137,8.866c0.001,4.831-3.308,9.518-7.78,12.705
		c-5.991,3.15-11.238,7.21-13.588,13.769c1.725,1.519,2.891-1.548,5.435-0.879c3.273-4.147,5.783,3.317,7.919,0.971
		c-0.901-6.882,8.376-9.9,14.815-9.452c6.753,1.909-0.115,8.69,4.55,11.811c0.91,4.338,4.957,2.489,5.218,2.929
		c-4.978,2.529-9.235,11.515-2.221,14.895c5.145-2.434,5.194,0.863,0.295,1.665c-2.556,1.557-1.872,10.48-4.643,14.617
		c-2.957,7.617-10.747,9.806-16.088,14.062c-1.968,4.534-10.293,0.406-11.926,4.086c-2.224-0.083-3.355,4.92-7.112,5.566
		c0.812,4.918-4.447-0.018-5.497,3.346c-1.346-0.311-8.033-4.069-6.708,1.31c-1.85,3.641-8.262,4.138-10.684,6.8
		c-2.642,5.882,5.545,0.091,8.665,4.163c2.301,5.047-0.2,6.791-3.82,8.681c-4.239,0.56,0.856,2.066,1.491,4.641
		c-0.038-5.501,7.011,0.14,10.932-2.097c8.118-1.307-2.954,2.724-4.596,1.897c-1.413,0.623-6.355,0.038-0.854,2.19
		c-0.014,3.153,3.946,5.388,7.097,4.071c2.164-4.554,7.572-1.529,10.481-4.148c-0.315-7.387,8.191-5.532,13.556-6.507
		c-2.296-4.888,1.184,0.205,2.671-2.93c-0.186,1.694,5.521,5.847,0.714,4.01c-1.516,2.969,5.01,5.544,8.277,3.716
		c1.934,4.045,8.67-1.853,5.622,2.652c-4.553,3.803-7.619-1.195-10.389,3.099c-0.506,3.712,2.206,6.527,5.792,5.227
		c2.518-2.454,6.904-1.173,9.922-1.372c-4.105-4.134,5.643-5.855,7.05-3.932c4.549,2.362,3.021,11.623,8.432,10.685
		c5.478,8,16.663,8.975,24.613,5.443c-0.807-5.566,5.633-7.673,9.038-11.672C412.522,898.408,417.967,896.27,421.855,894.22z"/>
</g>
</svg>
